<?xml version="1.0" standalone="no"?>
<!DOCTYPE svg PUBLIC "-//W3C//DTD SVG 20010904//EN"
 "http://www.w3.org/TR/2001/REC-SVG-20010904/DTD/svg10.dtd">
<svg version="1.0" xmlns="http://www.w3.org/2000/svg"
 width="509.000000pt" height="339.000000pt" viewBox="0 0 509.000000 339.000000"
 preserveAspectRatio="xMidYMid meet">

<g transform="translate(0.000000,339.000000) scale(0.100000,-0.100000)"
fill="#000000" stroke="none">
<path d="M2491 2980 c-10 -16 -21 -27 -24 -23 -4 3 -18 1 -31 -7 -14 -7 -32
-10 -42 -6 -9 3 -22 1 -30 -5 -8 -6 -19 -7 -31 -1 -11 5 -33 4 -58 -3 -22 -6
-34 -14 -27 -16 8 -3 -12 -4 -43 -4 -35 1 -64 -4 -78 -14 -12 -9 -29 -14 -37
-13 -9 1 -25 -7 -37 -18 -16 -14 -28 -18 -44 -12 -43 16 -169 -75 -169 -124 0
-7 -13 -11 -32 -10 -29 1 -33 -3 -36 -25 -2 -15 -11 -29 -20 -32 -28 -7 -57
-73 -46 -105 7 -21 6 -30 -10 -46 -18 -18 -18 -20 -1 -32 10 -7 22 -11 26 -8
12 7 11 -9 0 -21 -5 -6 -12 -24 -15 -41 -8 -34 5 -50 43 -56 34 -4 38 -25 7
-39 -14 -7 -26 -18 -26 -26 0 -7 -7 -13 -15 -13 -8 0 -18 -12 -21 -27 -6 -21
-2 -31 17 -47 18 -16 25 -33 27 -66 6 -100 31 -242 46 -258 8 -10 19 -29 24
-42 l10 -25 9 23 c8 20 10 21 28 8 18 -13 19 -15 3 -33 -18 -21 -19 -76 0 -95
9 -9 12 -3 12 29 0 23 4 43 10 45 5 2 12 40 16 84 l7 81 -52 14 c-28 7 -51 16
-51 21 0 4 10 4 23 -1 12 -4 34 -11 50 -15 26 -6 27 -5 27 39 0 26 5 55 11 66
6 11 12 47 14 80 2 33 10 70 19 84 9 13 16 40 16 60 0 19 5 35 11 35 6 0 9 9
6 19 -3 14 2 21 19 25 13 4 38 25 54 48 32 43 130 117 159 119 56 4 155 -26
144 -44 -3 -5 -1 -7 4 -4 6 4 26 -7 44 -24 32 -30 76 -54 92 -51 7 2 11 -14 8
-30 0 -5 3 -8 8 -8 20 0 23 -41 4 -56 -15 -11 -16 -15 -4 -23 8 -5 11 -16 8
-25 -4 -9 -2 -16 4 -16 6 0 8 -4 5 -8 -3 -5 5 -19 18 -33 26 -29 39 -59 25
-59 -6 0 -7 -5 -3 -12 5 -8 2 -9 -10 -5 -18 7 -76 -20 -76 -36 0 -4 -4 -6 -9
-3 -17 11 -59 -33 -57 -59 3 -20 -2 -25 -28 -31 -30 -7 -30 -7 -8 -17 12 -6
22 -17 23 -26 1 -9 3 -27 5 -41 3 -14 7 -47 10 -75 4 -27 10 -52 14 -55 5 -3
-2 -18 -15 -34 -20 -25 -33 -31 -91 -38 -77 -9 -92 0 -67 39 l16 24 -48 -25
c-30 -16 -64 -26 -91 -26 -31 0 -42 -4 -38 -13 2 -7 -5 -22 -16 -34 -27 -30
-28 -69 -2 -125 12 -26 22 -53 22 -61 0 -8 9 -25 21 -38 22 -26 22 -23 4 39
-12 41 25 56 88 36 19 -6 20 -5 8 10 -9 10 -10 16 -2 16 6 0 10 6 8 13 -1 9
32 12 148 10 83 -1 150 -3 150 -3 0 -1 8 -3 18 -5 11 -2 22 -6 25 -10 10 -10
-39 -47 -54 -41 -7 3 -18 -2 -24 -10 -7 -8 -20 -14 -29 -15 -13 0 -12 -2 3 -8
17 -7 17 -9 -9 -29 -20 -16 -41 -22 -76 -22 -26 0 -51 -5 -54 -10 -4 -6 -11
-8 -16 -5 -5 4 -9 2 -9 -4 0 -5 6 -11 13 -14 9 -3 9 -7 -1 -19 -20 -24 0 -30
73 -23 52 6 65 5 65 -6 0 -11 2 -11 10 1 8 12 10 10 10 -11 0 -14 6 -31 13
-38 10 -11 10 -13 0 -7 -12 6 -15 -3 -12 -31 1 -11 -32 -22 -70 -22 -18 -1
-51 -6 -72 -12 -44 -14 -77 -4 -123 36 -16 14 -33 25 -38 25 -16 0 -23 2 -43
13 -11 6 -28 12 -38 14 -17 3 -16 0 5 -28 32 -43 97 -109 107 -109 4 0 23 -14
40 -31 25 -23 32 -37 28 -56 -3 -16 1 -27 10 -30 8 -3 12 -11 9 -19 -3 -7 -1
-14 5 -16 5 -2 12 -20 15 -40 6 -34 5 -37 -15 -33 -11 2 -21 0 -21 -6 0 -5 -9
-9 -20 -9 -11 0 -20 -6 -20 -14 0 -8 -6 -17 -12 -19 -10 -4 -10 -6 0 -6 10 -1
10 -5 -2 -17 -21 -20 -20 -35 1 -27 11 4 14 3 9 -6 -8 -13 12 -44 24 -36 9 5
50 -89 50 -115 0 -14 -6 -17 -22 -13 -20 4 -18 2 7 -16 35 -24 94 -46 102 -37
4 3 0 6 -8 7 -8 0 -6 4 6 9 19 8 19 9 1 9 -13 1 -16 5 -9 13 5 7 9 20 8 28 0
8 4 18 10 22 6 5 3 8 -7 8 -10 0 -18 5 -18 11 0 5 4 8 9 4 5 -3 12 -1 16 4 3
6 12 8 20 5 7 -3 22 -1 32 5 33 17 104 -14 133 -57 13 -20 23 -41 22 -46 -2
-5 6 -6 18 -3 24 6 24 7 -47 -95 -29 -42 -53 -80 -53 -84 0 -5 7 2 16 14 11
16 22 21 37 17 15 -4 18 -3 9 3 -22 15 15 83 42 77 12 -2 23 -4 26 -4 3 -1 -2
-6 -10 -11 -13 -9 -13 -11 0 -20 13 -8 13 -10 -1 -10 -9 0 -19 -7 -23 -15 -3
-8 -1 -15 4 -15 6 0 10 -4 10 -10 0 -5 -7 -7 -16 -3 -14 5 -15 3 -5 -16 9 -16
9 -21 0 -19 -7 2 -17 -10 -23 -27 -6 -16 -17 -36 -23 -43 -7 -7 -13 -20 -13
-28 0 -8 -4 -14 -9 -14 -5 0 -14 -15 -22 -32 -13 -33 -43 -81 -66 -106 -7 -7
-13 -18 -13 -23 0 -5 -5 -9 -11 -9 -8 0 -8 5 1 15 9 11 9 15 1 15 -6 0 -16 11
-21 25 -5 14 -14 25 -20 25 -7 0 -9 9 -4 23 3 12 3 19 -1 15 -11 -11 -48 29
-42 45 3 8 1 19 -5 25 -8 8 -7 16 2 27 11 13 10 15 -3 10 -8 -4 -18 -1 -23 6
-5 8 -3 10 7 4 8 -5 4 3 -8 16 -12 13 -25 36 -28 51 -4 15 -13 29 -20 32 -21
8 -105 124 -100 138 3 7 -15 36 -40 65 -58 66 -58 78 0 16 44 -47 55 -50 35
-12 -9 15 -7 19 5 19 15 0 15 2 1 15 -8 8 -19 15 -25 15 -6 0 -8 7 -5 15 4 8
1 22 -6 30 -9 11 -10 18 -1 29 8 10 6 19 -9 39 -11 14 -20 30 -20 35 0 5 -6
12 -14 15 -8 3 -29 36 -47 73 -27 55 -34 80 -34 131 0 35 -3 63 -7 63 -13 0
-38 -44 -44 -80 -4 -19 -10 -39 -14 -45 -15 -19 -40 -118 -40 -156 0 -21 -5
-41 -11 -45 -6 -3 -9 -17 -6 -29 3 -18 -1 -25 -17 -29 -40 -10 -77 -61 -96
-132 l-18 -69 -4 80 c-1 44 -2 113 0 153 2 44 -1 72 -8 72 -5 0 -11 10 -11 23
-1 17 -3 15 -8 -8 -4 -17 -2 -32 4 -35 6 -3 8 -23 4 -50 -6 -49 -16 -39 -23
20 -2 19 -4 39 -5 44 0 5 -8 3 -16 -4 -12 -10 -15 -10 -15 2 0 15 -30 48 -45
48 -4 0 -5 -18 -2 -39 3 -28 1 -41 -8 -45 -8 -3 -16 0 -18 7 -3 9 -8 8 -20 -2
-15 -12 -17 -11 -17 4 0 21 -28 44 -53 45 -22 0 -51 -61 -35 -71 17 -11 1 -79
-22 -102 l-22 -19 3 38 c1 22 7 45 12 52 7 8 5 12 -7 12 -10 0 -16 8 -16 21 0
21 -30 25 -32 4 -3 -18 -23 -33 -36 -27 -8 3 -18 -1 -22 -8 -4 -7 -22 -14 -40
-15 -24 -2 -45 -17 -91 -65 -32 -34 -59 -67 -59 -72 0 -5 -10 -3 -23 3 -22 12
-22 12 -4 -9 12 -13 15 -22 8 -27 -16 -9 -14 -19 9 -45 25 -29 37 -19 21 17
-11 23 -10 25 3 14 11 -9 15 -33 14 -91 -1 -66 3 -81 21 -101 11 -12 21 -28
21 -34 0 -6 16 -35 36 -65 85 -129 141 -280 99 -264 -8 4 -12 10 -9 15 3 5 0
9 -5 9 -6 0 -11 5 -11 10 0 6 -15 43 -34 83 -18 40 -37 83 -41 97 -9 29 -87
151 -93 145 -2 -2 0 -10 4 -17 8 -13 14 -70 14 -147 1 -24 7 -55 14 -70 20
-40 28 -71 18 -71 -5 0 -37 27 -71 60 -35 33 -66 60 -71 60 -10 0 6 -60 20
-74 5 -5 10 -17 10 -25 0 -9 15 -41 33 -71 19 -31 37 -68 41 -83 l6 -27 1305
0 1305 0 0 23 c0 66 -58 451 -79 525 -13 42 -76 148 -121 202 -50 60 -179 125
-295 149 -33 7 -71 19 -85 26 -14 7 -63 28 -110 46 -85 33 -159 87 -205 148
-11 15 -42 47 -68 69 -36 32 -57 42 -82 42 l-35 0 7 78 c5 66 10 83 39 123 38
52 84 145 84 170 0 9 8 27 19 40 23 30 44 116 40 166 -5 68 26 275 47 309 17
29 16 120 -2 134 -18 16 -18 40 1 40 8 0 15 -7 15 -15 0 -8 5 -15 10 -15 6 0
10 7 10 15 0 8 5 15 10 15 6 0 2 17 -9 39 l-20 38 24 22 c14 11 25 18 25 14 0
-4 5 -2 12 5 9 9 5 19 -17 42 -19 20 -24 30 -14 30 12 0 12 2 0 9 -8 5 -11 16
-7 29 5 14 0 27 -15 40 -11 11 -22 32 -23 46 0 14 -5 26 -10 26 -4 0 -6 7 -3
15 4 8 2 17 -3 20 -6 4 -11 -2 -12 -12 0 -10 -4 5 -7 32 -5 43 -9 50 -30 53
-17 3 -21 0 -15 -9 4 -7 -14 5 -40 26 -26 22 -56 57 -67 78 -14 27 -26 37 -44
37 -14 0 -26 7 -30 19 -9 29 -60 47 -92 32 -24 -11 -25 -11 -19 15 5 20 1 33
-15 50 -29 31 -36 30 -58 -6z m466 -462 c-3 -7 -5 -2 -5 12 0 14 2 19 5 13 2
-7 2 -19 0 -25z m-1217 -284 c0 -31 -23 -28 -28 4 -2 15 2 22 12 22 11 0 16
-9 16 -26z m1056 -255 c5 -27 -1 -50 -25 -97 -34 -66 -65 -90 -116 -87 -16 1
-41 3 -55 4 -32 2 -60 20 -42 28 19 8 14 30 -10 48 -23 15 -23 15 12 13 19 -1
57 1 84 6 46 7 50 6 71 -20 l23 -28 21 34 c11 19 22 44 22 55 4 47 -3 80 -18
99 l-17 21 22 -21 c13 -11 25 -36 28 -55z m44 47 c0 -2 -7 -6 -15 -10 -8 -3
-15 -1 -15 4 0 6 7 10 15 10 8 0 15 -2 15 -4z m35 -6 c3 -5 -1 -10 -9 -10 -9
0 -16 5 -16 10 0 6 4 10 9 10 6 0 13 -4 16 -10z m-414 -19 c-11 -7 -11 -10 3
-14 15 -5 15 -5 0 -3 -24 2 -30 26 -7 26 14 0 15 -2 4 -9z m-651 -111 c0 -5
-5 -10 -11 -10 -5 0 -7 5 -4 10 3 6 8 10 11 10 2 0 4 -4 4 -10z m1037 -87 c-3
-10 -5 -2 -5 17 0 19 2 27 5 18 2 -10 2 -26 0 -35z m-117 -23 c0 -27 -43 -44
-73 -29 -20 11 -18 13 24 29 24 10 45 18 47 19 1 1 2 -8 2 -19z m-490 -50 c0
-5 12 -10 28 -10 33 0 57 -14 48 -28 -3 -5 15 -12 44 -16 62 -8 67 -25 5 -18
-25 2 -51 0 -58 -6 -7 -6 -50 -14 -95 -18 -98 -8 -103 0 -40 63 42 40 68 53
68 33z m-606 -845 c-4 -8 -10 -12 -15 -9 -11 6 -2 24 11 24 5 0 7 -7 4 -15z
m-303 -205 c15 -47 42 -125 59 -173 16 -48 30 -93 30 -100 -1 -19 -48 100 -80
203 -35 110 -37 115 -67 124 -18 6 -23 3 -23 -11 0 -13 -6 -8 -20 15 -19 30
-19 34 -4 57 8 13 23 25 32 27 19 4 29 -16 73 -142z m-99 1 c-3 -9 -1 -12 6
-7 6 3 13 2 17 -4 3 -5 1 -10 -4 -10 -6 0 -11 -7 -11 -15 0 -17 -22 -11 -63
19 -29 21 -29 45 1 78 14 17 16 16 37 -14 13 -18 20 -39 17 -47z m1438 45 c0
-2 -8 -10 -17 -17 -16 -13 -17 -12 -4 4 13 16 21 21 21 13z m-1431 -221 c0
-37 -3 -45 -9 -30 -12 29 -12 114 0 95 5 -8 9 -37 9 -65z m1467 -32 c-8 -16
-31 -46 -50 -68 -32 -35 -31 -32 10 28 51 71 64 84 40 40z"/>
<path d="M1175 731 c-3 -5 -2 -12 3 -15 5 -3 9 1 9 9 0 17 -3 19 -12 6z"/>
<path d="M2094 2133 c-26 -2 -54 -15 -75 -33 -38 -31 -36 -47 4 -29 20 9 43 9
102 -2 41 -7 75 -16 75 -20 0 -4 -27 -15 -61 -25 -56 -17 -109 -54 -109 -76 0
-6 11 -7 24 -4 34 8 84 -3 91 -21 4 -12 0 -14 -16 -10 -14 4 -18 2 -12 -4 16
-16 89 -13 128 5 20 10 40 28 45 42 5 13 17 24 27 24 12 0 14 -3 6 -8 -7 -4
-9 -13 -4 -21 5 -7 6 -22 3 -34 -3 -13 -1 -18 6 -13 6 4 11 26 10 50 0 24 2
48 6 54 3 5 -4 12 -15 15 -14 4 -18 10 -13 19 16 24 12 36 -19 64 -25 23 -40
27 -96 29 -36 2 -84 1 -107 -2z m236 -133 c0 -5 -4 -10 -10 -10 -5 0 -10 5
-10 10 0 6 5 10 10 10 6 0 10 -4 10 -10z m-190 -9 c-8 -5 -26 -12 -40 -15 -24
-7 -24 -6 -6 8 11 9 29 16 40 16 17 -1 18 -2 6 -9z"/>
<path d="M2085 2040 c3 -5 16 -10 28 -9 21 0 21 1 2 9 -28 12 -37 12 -30 0z"/>
<path d="M2040 2030 c-8 -5 -10 -10 -5 -10 6 0 17 5 25 10 8 5 11 10 5 10 -5
0 -17 -5 -25 -10z"/>
<path d="M1938 1943 c7 -3 16 -2 19 1 4 3 -2 6 -13 5 -11 0 -14 -3 -6 -6z"/>
<path d="M1885 1700 c3 -5 8 -10 11 -10 2 0 4 5 4 10 0 6 -5 10 -11 10 -5 0
-7 -4 -4 -10z"/>
<path d="M1911 1604 c0 -11 3 -14 6 -6 3 7 2 16 -1 19 -3 4 -6 -2 -5 -13z"/>
<path d="M1756 1005 c-3 -9 -6 -22 -5 -28 0 -7 5 -1 10 12 5 13 8 26 5 28 -2
2 -6 -3 -10 -12z"/>
<path d="M2250 586 c0 -2 8 -10 18 -17 15 -13 16 -12 3 4 -13 16 -21 21 -21
13z"/>
<path d="M2295 570 c10 -11 20 -20 23 -20 3 0 -3 9 -13 20 -10 11 -20 20 -23
20 -3 0 3 -9 13 -20z"/>
<path d="M2340 506 c0 -2 8 -10 18 -17 15 -13 16 -12 3 4 -13 16 -21 21 -21
13z"/>
<path d="M2420 462 c0 -7 6 -12 13 -12 8 0 8 -3 -2 -9 -11 -7 -9 -10 10 -13
17 -2 25 -11 30 -36 5 -26 4 -32 -7 -28 -7 3 -16 1 -19 -4 -4 -6 5 -10 18 -10
27 0 42 31 24 49 -9 9 -8 17 2 33 12 19 11 20 -10 15 -15 -4 -30 0 -41 10 -11
10 -18 12 -18 5z"/>
<path d="M2435 389 c-4 -6 -5 -12 -2 -15 2 -3 7 2 10 11 7 17 1 20 -8 4z"/>
<path d="M1008 131 c-2 -16 -1 -37 3 -47 4 -11 8 -34 8 -51 1 -32 2 -33 46
-33 44 0 60 12 30 24 -8 3 -15 10 -15 17 0 20 -41 68 -54 63 -9 -3 -11 3 -8
26 2 16 2 30 -1 30 -2 0 -7 -13 -9 -29z"/>
</g>
</svg>
