<?xml version="1.0" standalone="no"?>
<!DOCTYPE svg PUBLIC "-//W3C//DTD SVG 20010904//EN"
 "http://www.w3.org/TR/2001/REC-SVG-20010904/DTD/svg10.dtd">
<svg version="1.0" xmlns="http://www.w3.org/2000/svg"
 width="509.000000pt" height="339.000000pt" viewBox="0 0 509.000000 339.000000"
 preserveAspectRatio="xMidYMid meet">

<g transform="translate(0.000000,339.000000) scale(0.100000,-0.100000)"
fill="#000000" stroke="none">
<path d="M0 3241 c0 -111 3 -150 13 -154 9 -3 9 -12 -1 -41 -8 -21 -11 -40 -8
-43 11 -11 36 7 36 27 0 11 3 20 8 20 4 0 17 19 30 43 31 59 65 77 146 77 37
0 66 4 66 10 0 15 46 12 48 -2 4 -29 14 -86 22 -123 36 -168 36 -153 9 -181
-23 -26 -26 -26 -116 -20 -85 6 -93 5 -93 -12 0 -15 10 -18 75 -19 60 -1 80
-6 105 -24 35 -26 37 -39 13 -80 -17 -29 -17 -31 5 -72 20 -37 21 -48 12 -101
-5 -32 -11 -61 -13 -63 -11 -11 -48 -10 -54 1 -10 17 -50 29 -57 18 -7 -11
-56 -3 -56 9 0 5 -7 6 -15 3 -18 -7 -20 7 -3 25 11 11 10 13 -2 9 -8 -3 -28 1
-45 8 -16 6 -41 11 -55 9 -14 -1 -35 -3 -47 -4 -22 -1 -23 -5 -23 -90 l0 -88
38 7 c20 4 51 13 68 19 17 7 62 11 100 9 l69 -3 5 -40 c7 -50 16 -65 39 -65
29 0 68 -37 81 -75 10 -30 8 -47 -11 -113 -12 -42 -28 -88 -35 -102 -9 -19
-10 -38 -2 -70 5 -25 16 -84 25 -131 15 -82 15 -89 -4 -140 -15 -40 -18 -64
-12 -94 18 -93 5 -236 -20 -221 -5 4 -19 2 -31 -2 -21 -8 -21 -8 5 -37 34 -39
45 -67 45 -118 0 -24 8 -53 17 -66 11 -16 18 -52 21 -105 2 -45 9 -89 14 -99
12 -24 -14 -64 -51 -80 -16 -7 -67 -11 -117 -10 -49 1 -124 -1 -166 -4 l-78
-5 0 -104 c0 -67 4 -104 11 -104 16 0 113 43 120 53 3 4 21 10 40 12 63 7 93
20 100 46 5 16 7 18 8 7 1 -10 6 -18 11 -18 6 0 10 -4 10 -10 0 -5 -7 -7 -15
-4 -11 5 -15 -1 -15 -23 0 -27 18 -61 47 -91 7 -7 13 -16 13 -20 0 -4 16 -18
36 -32 56 -38 67 -60 59 -124 l-7 -56 -56 0 c-53 0 -55 -1 -35 -15 12 -8 23
-25 25 -37 2 -15 13 -24 35 -30 36 -9 57 -40 68 -101 10 -50 -6 -67 -62 -67
-53 0 -103 -24 -103 -49 0 -24 23 -43 43 -35 10 3 20 -2 27 -15 10 -20 19 -21
135 -21 l124 0 -4 28 c-23 144 -28 204 -28 387 1 218 11 375 23 354 12 -19 27
-2 39 46 11 45 11 45 56 45 25 0 45 4 45 8 0 10 -120 75 -126 69 -3 -2 -8 -29
-11 -58 -6 -51 -7 -52 -15 -24 -13 46 -21 731 -9 752 9 15 10 13 11 -14 0 -24
4 -31 14 -27 19 7 30 68 32 189 3 148 3 147 15 161 9 11 5 22 -16 50 -22 28
-32 34 -51 30 -22 -6 -23 -4 -22 39 0 25 4 45 9 45 5 0 9 -7 9 -15 0 -8 3 -15
8 -16 4 0 17 -2 29 -3 17 -2 22 4 27 37 4 21 4 60 0 85 -4 36 -1 59 16 96 19
45 20 56 10 125 -6 42 -15 105 -20 141 -5 36 -9 115 -8 175 0 101 2 113 25
147 l25 37 -26 28 c-41 44 -44 84 -17 257 10 58 9 73 -4 93 -15 23 -15 24 17
37 18 8 54 14 79 13 47 0 47 -1 52 -39 6 -44 -12 -101 -30 -94 -14 6 -22 -12
-15 -37 3 -14 7 -15 18 -6 11 9 14 7 14 -10 0 -12 7 -33 16 -46 10 -16 13 -31
8 -42 -4 -10 -6 -36 -5 -58 3 -51 -26 -85 -71 -85 -31 0 -31 0 -25 -47 3 -30
12 -52 23 -60 11 -7 27 -20 37 -28 15 -13 17 -13 17 6 0 11 4 18 9 15 5 -4 12
0 14 6 4 8 6 7 6 -4 1 -9 -5 -18 -11 -20 -12 -4 -29 -149 -21 -174 7 -21 53
-3 60 23 6 28 -4 203 -13 212 -3 3 -9 -1 -14 -9 -7 -11 -10 -7 -10 16 0 17 6
37 14 43 9 8 15 55 19 178 5 159 6 168 27 183 13 8 35 27 50 42 15 15 55 43
88 63 34 20 62 38 62 40 0 3 -241 5 -535 5 l-535 0 0 -149z m860 69 c0 -5 -4
-10 -10 -10 -5 0 -10 5 -10 10 0 6 5 10 10 10 6 0 10 -4 10 -10z m-260 -1575
c0 -14 -4 -25 -10 -25 -11 0 -14 33 -3 43 11 11 13 8 13 -18z"/>
<path d="M1166 3375 c10 -8 26 -14 34 -14 8 0 24 6 34 14 18 14 15 15 -34 15
-49 0 -52 -1 -34 -15z"/>
<path d="M1628 3248 c-13 -13 -39 -43 -58 -68 -19 -24 -52 -62 -72 -84 -21
-21 -38 -45 -38 -53 0 -7 -3 -13 -8 -13 -4 0 -13 -9 -19 -20 -11 -16 -10 -18
2 -14 8 4 15 10 15 15 0 14 58 11 63 -3 4 -10 6 -10 6 0 1 6 11 12 22 12 16 0
20 5 16 19 -3 12 0 18 7 15 6 -2 18 1 26 6 13 8 13 11 1 19 -8 5 -11 16 -8 25
4 9 1 16 -5 16 -6 0 -8 3 -5 6 4 4 12 2 20 -4 19 -16 72 31 62 55 -11 25 -6
56 11 66 15 8 10 27 -6 27 -5 0 -19 -10 -32 -22z"/>
<path d="M1925 3023 c-16 -3 -46 -18 -67 -35 -21 -16 -42 -27 -48 -23 -6 4 -9
3 -8 -2 4 -12 -40 -56 -86 -87 -47 -32 -59 -33 -51 -5 6 19 5 20 -8 8 -11 -10
-12 -18 -5 -27 13 -15 15 -13 -63 -68 -51 -36 -70 -44 -103 -43 -23 1 -31 4
-19 6 19 4 21 9 16 41 -3 20 -10 39 -15 40 -4 2 -8 15 -8 28 0 18 -6 24 -22
26 -13 0 -30 2 -38 2 -9 1 -14 10 -12 25 2 19 0 20 -11 9 -7 -7 -26 -35 -42
-63 -15 -27 -43 -66 -60 -85 -18 -19 -47 -57 -66 -85 -18 -27 -55 -70 -81 -94
-59 -53 -63 -76 -14 -68 19 3 44 3 56 0 19 -5 17 -8 -17 -31 -21 -13 -55 -41
-75 -60 -30 -29 -36 -31 -31 -14 7 30 -18 51 -71 58 -37 5 -50 2 -78 -17 -59
-42 -69 -59 -65 -112 3 -38 11 -55 37 -82 29 -30 31 -36 22 -64 -9 -25 -8 -29
5 -24 13 5 14 3 3 -17 -16 -29 -8 -83 20 -145 12 -27 23 -55 24 -62 1 -7 5
-16 9 -19 10 -11 8 -26 -2 -19 -5 3 -12 1 -16 -5 -4 -6 -10 -8 -15 -5 -4 3
-13 -2 -20 -10 -7 -8 -16 -15 -21 -15 -15 0 -50 -40 -61 -70 -6 -19 -6 -35 1
-48 11 -21 -4 -253 -18 -281 -9 -17 1 -55 18 -66 6 -3 11 0 11 8 0 8 11 22 24
30 20 14 23 22 19 54 -10 65 -5 122 13 152 l17 29 21 -42 c19 -38 24 -41 56
-37 19 1 47 9 62 17 15 8 31 15 35 17 5 1 8 12 8 24 -1 29 -2 31 90 -117 43
-69 92 -144 108 -167 17 -24 27 -46 24 -50 -4 -3 -7 -1 -7 6 0 15 -59 -29 -59
-45 -1 -6 21 -33 49 -60 42 -41 50 -55 50 -86 0 -21 4 -38 8 -38 5 0 14 -11
20 -24 12 -27 89 -66 129 -66 13 0 29 -4 36 -10 7 -5 26 -21 43 -35 32 -25 76
-106 88 -162 4 -18 14 -79 21 -135 l14 -103 -59 -160 c-64 -176 -130 -378
-130 -401 0 -12 103 -14 787 -14 599 1 791 4 802 13 12 9 13 9 7 -1 -5 -9 10
-12 64 -12 51 0 70 4 69 13 -6 49 26 63 36 15 6 -27 9 -28 66 -28 51 0 59 2
59 19 0 10 7 21 15 25 18 7 62 93 52 103 -11 10 -30 -13 -31 -38 0 -12 -7 -24
-13 -27 -21 -6 -27 27 -9 47 9 10 16 28 16 40 0 18 -3 20 -17 12 -13 -7 -22
-6 -33 4 -8 7 -27 17 -42 20 -27 7 -28 6 -28 -33 0 -29 -7 -48 -30 -73 -31
-37 -49 -33 -55 12 -2 22 -13 70 -36 162 -6 20 -15 37 -21 37 -7 0 -6 5 2 15
10 12 9 15 -4 16 -9 1 -20 3 -26 4 -5 1 -14 3 -20 4 -5 0 -6 8 -3 18 4 11 3
14 -6 9 -7 -5 -10 -15 -7 -23 5 -11 1 -14 -13 -10 -14 3 -18 1 -14 -9 6 -17
30 -18 36 -1 3 8 9 6 20 -8 18 -23 20 -115 3 -128 -8 -6 -8 -10 0 -13 7 -3 8
-19 3 -47 -10 -56 -27 -107 -28 -84 -1 28 -25 14 -32 -19 -4 -21 -8 -7 -13 49
-7 64 -11 76 -22 66 -17 -14 -19 2 -3 18 6 6 8 16 5 22 -14 22 -23 10 -24 -34
-2 -33 3 -49 19 -64 12 -11 18 -25 14 -31 -6 -9 -10 -9 -16 1 -6 10 -9 6 -9
-12 0 -14 -6 -26 -12 -26 -7 0 -21 -4 -30 -8 -16 -6 -18 -1 -18 34 0 29 4 41
14 41 24 0 30 21 11 38 -10 10 -15 12 -11 5 3 -6 2 -14 -4 -18 -6 -4 -10 8
-10 29 0 29 -3 34 -17 29 -15 -5 -14 -3 2 10 11 8 23 13 27 11 5 -3 8 4 8 16
0 15 11 25 35 36 19 8 35 17 35 20 0 7 -48 54 -55 54 -3 0 2 -11 11 -25 16
-24 16 -27 -2 -40 -25 -19 -33 -18 -41 1 -5 13 -7 13 -14 2 -6 -9 -9 -2 -9 20
0 17 4 32 9 32 14 0 76 54 79 70 9 40 35 63 68 59 3 0 14 9 23 20 10 12 25 21
34 21 9 0 23 8 33 18 10 9 20 15 23 14 3 -2 11 10 18 27 8 20 9 31 3 31 -6 0
-3 11 6 25 9 14 13 32 10 41 -4 9 -2 22 4 29 8 9 8 15 0 20 -6 3 -8 11 -5 16
4 5 -7 9 -23 9 -17 0 -32 6 -36 15 -3 8 -12 15 -20 15 -19 0 -28 26 -12 39 10
8 17 7 26 -4 17 -20 24 -19 35 7 6 13 19 27 31 33 12 6 20 19 19 31 -1 16 3
20 17 16 21 -5 37 26 18 38 -7 4 -10 17 -6 31 3 13 3 18 0 11 -3 -7 -15 -17
-26 -23 -13 -7 -18 -7 -14 -1 4 6 -2 15 -11 21 -16 9 -16 10 -1 11 9 0 18 6
21 12 2 7 3 5 2 -4 -3 -16 -1 -16 20 -2 13 9 22 21 19 29 -3 7 0 16 7 21 8 4
10 3 5 -4 -4 -7 -3 -12 3 -12 5 0 13 5 16 10 4 7 16 1 31 -15 27 -30 34 -32
45 -13 7 11 12 11 30 0 11 -7 24 -11 27 -8 3 3 0 6 -7 6 -8 0 -11 8 -8 20 3
13 0 20 -9 20 -8 0 -14 5 -14 11 0 8 -4 8 -13 1 -8 -7 -18 -7 -27 -2 -12 8
-11 10 5 10 18 1 17 2 -5 15 -16 8 -29 10 -36 4 -8 -6 -17 -5 -27 5 -8 8 -17
12 -21 9 -3 -4 -6 1 -6 10 0 9 5 19 10 22 6 3 10 13 10 22 0 12 -6 9 -23 -10
-23 -27 -51 -34 -75 -18 -10 6 -8 10 8 14 14 4 19 10 14 18 -4 7 -3 10 2 7 5
-3 15 0 22 8 11 12 10 14 -5 15 -12 1 -10 3 7 8 27 7 33 28 13 48 -11 13 -43
8 -43 -6 0 -4 -7 -16 -16 -27 -15 -18 -15 -17 -10 14 4 21 2 32 -7 32 -8 0 -7
3 3 9 8 6 17 8 22 5 4 -3 14 12 23 32 18 45 19 51 1 51 -7 0 -18 -15 -25 -33
-6 -18 -19 -35 -28 -38 -13 -5 -14 -4 -4 8 19 23 -4 29 -40 11 -17 -9 -28 -12
-25 -6 12 18 -4 34 -20 20 -11 -9 -14 -6 -14 17 0 33 -19 66 -26 47 -9 -20
-44 -56 -50 -51 -3 4 7 25 21 48 21 33 29 40 36 29 7 -11 9 -10 9 4 0 22 16
22 29 0 5 -10 12 -15 15 -12 4 3 -3 18 -15 33 -12 15 -19 30 -15 33 3 4 6 2 6
-3 0 -5 11 11 23 36 27 52 28 128 2 142 -20 12 -19 21 5 36 18 11 22 10 30
-10 8 -22 9 -22 9 5 1 16 -3 26 -8 23 -4 -3 -17 2 -27 10 -19 15 -18 15 1 11
17 -3 21 1 20 21 0 24 -25 46 -25 23 0 -19 -16 -12 -28 12 -10 21 -11 21 -11
-7 -1 -36 -8 -31 -14 11 -3 19 0 34 6 37 9 3 8 5 0 5 -7 1 -13 10 -13 21 0 11
-5 20 -11 20 -17 0 22 34 42 37 19 3 23 -6 20 -40 -1 -9 4 -20 13 -23 8 -3 17
-13 20 -21 6 -14 4 -14 -10 -2 -14 12 -16 11 -13 -6 5 -24 39 -33 39 -11 0 9
-9 25 -20 36 -23 23 -25 37 -8 42 8 3 1 18 -20 43 -17 22 -27 42 -22 45 5 3 5
11 0 20 -7 11 -10 12 -10 2 0 -7 -5 -10 -11 -6 -8 5 -6 10 5 16 13 7 21 5 31
-9 17 -23 25 -15 14 15 -5 13 -18 26 -28 29 -11 3 -22 16 -25 29 -4 14 -12 27
-19 30 -13 4 -11 104 2 104 4 0 7 10 8 22 1 11 7 24 13 28 17 11 2 80 -16 73
-8 -3 -14 0 -14 6 0 6 7 11 16 11 14 0 15 2 3 17 -11 13 -11 17 -1 20 6 3 12
9 12 14 0 6 -4 8 -9 5 -5 -3 -11 0 -14 8 -4 10 1 12 16 8 21 -5 22 -5 4 15
-14 16 -15 22 -5 25 11 4 11 8 0 21 -11 13 -10 15 6 10 16 -4 20 1 20 21 0 15
-4 29 -9 32 -5 3 -6 -3 -3 -13 5 -16 3 -15 -11 2 -15 18 -15 20 0 23 13 3 14
7 4 18 -6 8 -18 14 -25 14 -8 0 -14 5 -14 10 0 6 -6 10 -14 10 -8 0 -16 3 -19
8 -2 4 -2 0 1 -8 2 -8 5 -22 6 -30 0 -8 7 -21 14 -28 6 -7 12 -21 12 -30 0
-10 -9 -3 -21 18 -22 35 -22 35 -31 11 -4 -13 -7 -35 -6 -49 4 -35 -13 -37
-36 -4 -11 15 -16 24 -11 20 17 -16 34 19 25 56 -8 35 -7 36 13 30 20 -6 20
-5 8 10 -8 10 -16 28 -17 42 -3 25 4 25 36 -1 21 -17 68 -27 75 -15 6 10 -44
40 -67 40 -7 0 -18 11 -25 25 -12 27 -7 30 32 15 14 -5 24 -14 20 -19 -3 -5
-1 -12 4 -16 6 -3 8 4 6 17 -3 13 -10 25 -16 27 -5 1 -21 13 -35 26 -15 14
-32 21 -44 18 -11 -3 -20 0 -20 6 0 6 5 11 11 11 5 0 7 5 3 11 -5 8 -8 8 -13
0 -5 -8 -13 -7 -26 3 -12 9 -29 11 -51 6 -18 -4 -35 -5 -38 -2 -4 3 -6 0 -6
-7 0 -8 -5 -9 -17 -2 -10 5 -47 12 -83 17 -62 7 -64 8 -32 17 17 6 32 13 32
18 0 4 -14 2 -30 -4 -25 -10 -33 -9 -41 3 -11 17 -3 -26 12 -68 5 -13 9 -50 9
-84 0 -49 -3 -59 -15 -54 -14 5 -19 -5 -18 -40 0 -6 -5 -11 -12 -11 -13 0 -8
44 6 63 11 14 5 68 -12 109 -7 17 -12 33 -11 37 1 3 -5 11 -13 18 -11 9 -19 8
-35 -3 -14 -9 -17 -17 -11 -22 14 -8 14 -62 1 -70 -5 -3 -10 3 -10 15 0 19 -2
20 -15 6 -16 -16 -20 -31 -7 -22 5 3 9 0 9 -7 1 -7 4 -44 8 -83 5 -49 4 -73
-4 -78 -7 -5 -12 5 -13 31 -1 21 -5 -2 -8 -52 l-6 -90 -2 88 c-2 78 -4 87 -21
87 -11 0 -27 3 -36 7 -15 5 -16 3 -6 -15 6 -11 10 -51 9 -89 l-2 -68 -6 70 -6
70 -2 -72 -2 -72 29 5 c16 4 32 1 35 -5 12 -19 26 -2 28 32 1 18 4 5 8 -28 l7
-60 1 82 c2 80 14 113 27 73 7 -21 -2 -169 -11 -202 -3 -10 0 -27 7 -40 9 -16
9 -23 0 -26 -14 -5 -15 -69 -1 -77 8 -5 8 -11 1 -19 -12 -15 -12 -106 0 -106
5 0 8 3 8 8 -1 4 -1 16 0 27 1 14 4 16 9 7 10 -15 3 -72 -8 -72 -5 0 -11 6
-13 13 -3 6 -6 -2 -6 -19 -1 -37 -17 -44 -98 -44 l-53 0 0 108 c-1 101 -2 105
-16 79 -9 -17 -16 -64 -19 -125 -3 -90 -32 -205 -64 -263 -34 -61 -22 -131 56
-316 48 -114 59 -133 79 -133 17 0 29 -14 54 -62 18 -35 50 -89 71 -121 22
-32 39 -64 39 -72 0 -7 6 -16 13 -18 10 -4 10 -6 0 -6 -7 -1 -13 -9 -13 -18 0
-16 -3 -15 -18 3 -12 16 -23 20 -37 14 -26 -10 -45 -2 -45 18 0 13 -4 11 -16
-6 -17 -25 -36 -30 -28 -7 4 8 10 12 15 9 11 -7 11 -9 -5 53 -8 28 -12 54 -10
56 2 2 6 18 8 36 2 17 1 29 -2 26 -3 -3 -14 3 -25 12 -19 17 -20 17 -14 0 9
-23 -3 -108 -14 -101 -5 3 -9 16 -9 29 0 12 -6 25 -14 28 -7 3 -16 19 -18 36
-5 35 9 56 28 40 9 -8 11 -5 7 11 -4 15 -10 19 -22 14 -47 -20 -60 -17 -75 17
-33 74 -64 168 -81 244 -10 44 -21 85 -25 90 -31 43 -34 205 -4 205 8 0 14 5
14 11 0 6 6 9 12 7 38 -13 77 86 91 230 1 12 9 27 17 32 8 5 11 10 7 10 -5 0
0 13 9 29 10 17 23 27 31 24 7 -3 20 0 27 6 12 10 15 -2 21 -73 l7 -84 44 -4
43 -3 0 170 -1 170 -42 0 c-41 0 -44 -2 -53 -37 -6 -21 -6 -38 -2 -38 5 0 9
-5 9 -11 0 -5 -6 -7 -12 -3 -7 4 -4 -2 6 -14 11 -12 17 -22 15 -23 -2 0 -20
-2 -39 -3 -19 -1 -49 -10 -67 -19 -18 -9 -36 -17 -40 -17 -4 1 8 10 29 20 123
65 106 258 -27 305 -27 9 -33 14 -18 15 35 0 69 -17 102 -52 l31 -33 0 88 c0
51 4 87 10 87 6 0 9 3 8 8 -4 15 33 71 52 77 16 5 19 12 13 33 -9 38 -77 138
-92 134 -7 -1 -10 2 -7 7 4 5 2 12 -4 16 -6 4 -10 -15 -10 -52 0 -32 -4 -63
-8 -68 -16 -24 -36 -8 -49 40 -14 47 -46 95 -65 95 -4 0 -20 -19 -35 -42 -28
-43 -28 -43 -31 -15 -2 15 4 34 12 43 9 8 16 22 16 30 0 17 -49 63 -68 64 -7
0 -31 9 -52 20 -41 21 -131 32 -185 23z m231 -176 c-1 -13 -5 -27 -8 -32 -3
-6 -4 -18 -3 -27 2 -10 -1 -18 -5 -18 -10 0 -6 55 5 83 10 24 14 21 11 -6z
m-133 -88 c-10 -18 -22 -31 -26 -30 -8 2 -54 -45 -94 -96 -14 -18 -29 -30 -34
-27 -5 3 -6 -1 -4 -8 3 -8 -2 -22 -10 -33 -16 -19 -16 -19 -5 3 9 18 8 22 -5
22 -9 0 -14 -4 -11 -9 3 -5 -2 -12 -11 -15 -18 -7 -35 12 -26 28 4 5 1 6 -6 2
-7 -5 -10 -15 -7 -23 4 -10 2 -13 -8 -10 -15 6 -64 -39 -54 -49 9 -8 -12 -64
-24 -64 -6 0 -6 6 1 14 10 12 8 15 -11 18 -20 3 -11 16 81 110 57 59 106 106
110 105 3 -1 8 3 9 8 8 23 26 35 46 30 14 -4 17 -3 8 3 -11 7 -10 11 1 20 18
15 58 31 80 31 18 1 18 0 0 -30z m294 9 c-3 -8 -6 -5 -6 6 -1 11 2 17 5 13 3
-3 4 -12 1 -19z m-217 -12 c0 -2 -7 -6 -15 -10 -8 -3 -15 -1 -15 4 0 6 7 10
15 10 8 0 15 -2 15 -4z m-785 -28 c-9 -6 -19 -7 -22 -4 -4 3 -1 6 6 6 7 0 9 4
6 10 -4 6 1 7 11 3 15 -6 15 -7 -1 -15z m89 7 c-35 -16 -139 -124 -149 -155
-5 -16 -12 -19 -28 -15 -14 4 -17 3 -10 -2 10 -7 10 -13 -3 -29 -15 -18 -15
-18 -10 0 4 10 1 25 -6 33 -9 11 -8 13 3 11 9 -2 14 6 14 24 -1 21 2 25 16 18
20 -11 29 -3 28 24 0 20 -1 20 -8 2 -5 -13 -10 -16 -14 -9 -4 7 -2 15 5 19 11
7 22 10 64 16 6 1 17 10 23 20 11 18 10 18 -10 8 -16 -9 -24 -9 -33 0 -8 8 -7
10 5 5 10 -4 20 -1 24 5 4 6 15 8 26 5 10 -4 19 -2 19 3 0 6 12 15 28 20 40
15 52 13 16 -3z m653 -1 c-3 -3 -12 -4 -19 -1 -8 3 -5 6 6 6 11 1 17 -2 13 -5z
m23 -35 c14 24 18 -27 4 -55 -8 -14 -14 -33 -14 -41 0 -13 -2 -13 -17 -2 -11
10 -14 10 -9 2 5 -9 0 -13 -14 -13 -12 0 -18 5 -15 10 11 17 -11 11 -35 -10
-25 -22 -24 -21 -57 -25 -27 -3 -26 -3 -11 30 6 14 17 25 24 25 7 0 14 5 16
10 2 6 28 27 58 48 42 29 56 35 59 24 2 -11 5 -12 11 -3z m255 -18 c-3 -5 -1
-13 5 -16 6 -4 1 -14 -14 -26 -29 -23 -43 -24 -61 -5 -12 11 -12 16 0 32 7 11
17 15 21 11 5 -4 2 -12 -6 -17 -11 -7 -11 -10 -2 -10 7 0 15 7 18 15 4 8 10
13 14 10 5 -3 11 -1 15 5 3 5 8 10 11 10 3 0 3 -4 -1 -9z m65 -75 c0 -3 -4 -8
-10 -11 -5 -3 -10 -1 -10 4 0 6 5 11 10 11 6 0 10 -2 10 -4z m-300 -101 c0
-16 -5 -37 -10 -45 -7 -11 -10 3 -10 45 0 42 3 56 10 45 5 -8 10 -28 10 -45z
m-267 20 c-3 -9 -8 -14 -10 -11 -3 3 -2 9 2 15 9 16 15 13 8 -4z m-33 -1 c0
-8 -19 -13 -24 -6 -3 5 1 9 9 9 8 0 15 -2 15 -3z m427 -10 c-3 -3 -12 -4 -19
-1 -8 3 -5 6 6 6 11 1 17 -2 13 -5z m-62 -22 c-39 -24 -54 -44 -71 -89 -7 -21
-13 -30 -14 -20 -1 40 70 127 103 127 7 0 -1 -8 -18 -18z m856 -35 c-10 -9
-11 -8 -5 6 3 10 9 15 12 12 3 -3 0 -11 -7 -18z m35 -51 c-1 -37 -9 -36 -21 3
-5 16 -4 21 4 17 6 -4 11 -2 11 3 0 6 1 11 3 11 2 0 3 -15 3 -34z m-102 -2 c4
-10 2 -13 -6 -8 -8 5 -9 2 -5 -10 4 -9 3 -15 -2 -11 -11 6 -10 45 0 45 4 0 10
-7 13 -16z m62 -42 c-9 -8 -26 10 -26 26 1 15 2 15 15 -2 8 -11 13 -21 11 -24z
m-186 -58 c0 -8 -4 -12 -10 -9 -5 3 -10 13 -10 21 0 8 5 12 10 9 6 -3 10 -13
10 -21z m143 -35 c2 -30 6 -59 10 -66 4 -6 3 -14 -3 -18 -5 -3 -11 0 -11 7 -4
41 -7 55 -13 76 -7 21 1 68 10 59 3 -2 6 -29 7 -58z m-940 -53 c4 4 7 -3 7
-15 0 -12 4 -20 9 -17 5 4 8 -2 6 -11 -2 -10 -4 -31 -5 -48 -1 -26 -4 -22 -25
30 -27 67 -34 118 -12 77 7 -12 16 -19 20 -16z m107 9 c13 -14 21 -25 18 -25
-2 0 -15 11 -28 25 -13 14 -21 25 -18 25 2 0 15 -11 28 -25z m-184 -51 c9 -20
13 -46 10 -58 -6 -25 11 -51 41 -60 13 -4 22 -10 22 -14 -4 -28 3 -52 16 -52
19 0 16 -47 -3 -55 -13 -5 -13 -9 5 -95 5 -23 3 -22 -25 10 -19 21 -29 42 -26
53 3 9 1 17 -5 17 -6 0 -11 -6 -11 -12 0 -9 -4 -8 -10 2 -7 11 -10 12 -10 2 0
-14 32 -65 58 -91 7 -7 11 -20 8 -28 -4 -9 1 -17 12 -20 14 -3 17 -11 14 -35
-3 -22 -1 -29 7 -24 6 4 8 12 5 18 -4 7 -2 8 5 4 6 -4 9 -16 6 -27 -4 -11 -2
-19 5 -19 13 0 5 -70 -8 -80 -4 -3 -8 -12 -8 -21 -1 -11 5 -15 17 -12 16 4 19
0 19 -27 0 -17 9 -43 20 -57 11 -14 17 -29 14 -34 -3 -5 2 -12 10 -15 9 -3 16
-15 16 -26 0 -10 9 -37 19 -59 11 -22 18 -46 15 -54 -3 -7 9 -28 28 -46 18
-19 31 -41 29 -48 -1 -8 4 -20 13 -26 13 -10 10 -14 -20 -29 -28 -13 -35 -21
-31 -36 3 -11 1 -20 -4 -20 -4 0 -15 -12 -23 -27 l-14 -28 -16 60 c-9 33 -42
141 -72 239 -30 98 -53 185 -50 193 4 9 2 11 -6 7 -8 -5 -9 -2 -5 10 4 9 3 15
-1 12 -12 -7 -162 304 -162 336 0 29 15 46 23 26 11 -30 -2 62 -17 119 -10 40
-13 69 -8 84 l9 23 12 -21 c6 -12 11 -34 11 -50 0 -15 8 -37 16 -48 15 -20 15
-20 30 -1 15 21 19 56 6 56 -4 0 -13 19 -19 42 -9 32 -9 45 0 50 9 6 9 8 -1 8
-7 0 -10 5 -7 10 12 19 26 10 41 -26z m317 -1 c-13 -2 -33 -2 -45 0 -13 2 -3
4 22 4 25 0 35 -2 23 -4z m687 -50 c0 -7 -4 -13 -10 -13 -5 0 -10 12 -10 28 0
21 2 24 10 12 5 -8 10 -21 10 -27z m-1230 -13 c0 -22 -3 -40 -8 -40 -4 0 -6
18 -4 40 2 22 6 40 8 40 2 0 4 -18 4 -40z m477 -48 c67 -111 61 -167 -11 -98
-20 20 -36 40 -36 46 0 6 -9 32 -21 57 -11 25 -18 52 -15 60 11 29 40 7 83
-65z m522 7 c8 -28 21 -59 31 -69 9 -9 17 -30 16 -46 0 -16 3 -40 8 -53 7 -19
5 -23 -7 -18 -15 6 -42 -15 -32 -25 3 -3 -1 -11 -10 -18 -13 -11 -15 -7 -15
26 0 22 -5 46 -11 54 -8 12 -10 9 -6 -12 5 -35 -10 -36 -23 -2 -15 37 -12 46
10 39 20 -6 20 -3 17 84 -2 50 -1 91 3 91 3 0 12 -23 19 -51z m-669 1 c0 -5
-2 -10 -4 -10 -3 0 -8 5 -11 10 -3 6 -1 10 4 10 6 0 11 -4 11 -10z m908 -24
c5 -18 8 -48 6 -65 -2 -21 0 -30 7 -25 13 8 4 -101 -17 -193 -17 -76 -48 -128
-124 -205 -62 -64 -86 -74 -76 -32 5 20 2 30 -14 41 -27 19 -25 37 5 51 15 7
25 20 25 32 0 14 -4 19 -12 14 -8 -5 -9 -2 -5 9 3 9 2 19 -3 22 -5 3 -7 12 -3
20 8 23 52 18 85 -10 35 -29 48 -31 49 -7 0 9 3 31 5 47 6 37 7 69 6 115 -3
66 1 100 10 100 5 0 6 5 3 11 -4 6 1 16 11 23 12 9 18 27 18 50 0 45 12 47 24
2z m-911 -158 c-3 -7 -5 -2 -5 12 0 14 2 19 5 13 2 -7 2 -19 0 -25z m372 -42
c-9 -8 -10 -7 -5 7 3 10 7 24 7 30 1 7 3 4 6 -7 3 -10 -1 -23 -8 -30z m361
-15 c0 -3 16 -15 35 -25 35 -19 35 -19 15 -38 -17 -16 -25 -17 -63 -7 -40 10
-44 13 -39 37 6 36 20 52 38 45 8 -3 14 -8 14 -12z m280 -39 c0 -7 -4 -10 -10
-7 -5 3 -10 16 -10 28 0 18 2 19 10 7 5 -8 10 -21 10 -28z m68 -219 c18 -40
15 -49 -8 -20 -20 26 -26 47 -12 47 4 0 13 -12 20 -27z m-685 -10 c-7 -3 -13
-13 -13 -24 0 -10 -4 -19 -10 -19 -5 0 -10 -9 -10 -20 0 -11 -4 -20 -10 -20
-14 0 -13 6 6 43 22 43 36 59 43 51 3 -4 0 -9 -6 -11z m681 -47 c7 -27 6 -28
-9 -16 -14 12 -18 12 -26 -1 -5 -8 -9 -21 -10 -29 -1 -8 -5 0 -9 19 -5 19 -4
46 2 62 9 27 11 27 27 11 10 -9 21 -30 25 -46z m-17 -48 c-3 -8 -6 -5 -6 6 -1
11 2 17 5 13 3 -3 4 -12 1 -19z m78 -285 c-7 -17 -8 -17 -14 1 -5 14 -10 16
-15 8 -8 -13 -26 -16 -26 -4 0 12 44 29 54 21 5 -4 5 -16 1 -26z m-211 2 c-4
-8 -14 -15 -23 -15 -14 1 -13 3 3 15 25 19 27 19 20 0z m114 -31 c-25 -25 -42
-14 -22 14 12 17 19 21 27 13 8 -8 7 -16 -5 -27z m-768 -25 c15 -28 5 -23 -15
7 -9 15 -12 23 -6 20 6 -4 16 -16 21 -27z m817 15 c-3 -3 -12 -4 -19 -1 -8 3
-5 6 6 6 11 1 17 -2 13 -5z m63 -9 c-7 -9 -15 -13 -19 -10 -3 3 1 10 9 15 21
14 24 12 10 -5z m-50 -9 c0 -2 -8 -10 -17 -17 -16 -13 -17 -12 -4 4 13 16 21
21 21 13z m-147 -30 c11 -1 22 -7 25 -13 6 -20 -20 -15 -48 8 -14 11 -19 17
-11 13 7 -4 23 -7 34 -8z m287 -52 c0 -2 -11 -4 -25 -4 -14 0 -25 4 -25 9 0 4
11 6 25 3 14 -2 25 -6 25 -8z m-595 -58 c34 -32 36 -39 34 -85 -2 -28 0 -54 4
-57 4 -4 7 -27 7 -50 0 -31 7 -50 25 -71 22 -25 25 -26 26 -8 4 43 5 51 13 68
9 20 26 23 26 4 0 -21 -66 -148 -73 -141 -6 7 -11 -10 -8 -29 1 -5 -9 -22 -21
-40 -13 -17 -30 -47 -39 -65 -9 -20 -19 -30 -23 -24 -8 13 3 62 14 62 4 0 10
12 13 28 3 15 22 45 41 67 39 44 39 44 27 64 -8 13 -12 13 -28 0 -16 -13 -17
-12 -5 2 10 13 9 19 -5 30 -9 8 -25 34 -36 58 -19 43 -19 43 2 72 l21 29 -20
20 c-11 11 -20 29 -20 40 0 11 -9 29 -20 40 -36 36 6 23 45 -14z m586 17 c12
-16 12 -17 -2 -6 -9 7 -18 10 -22 7 -3 -3 -14 -1 -24 5 -16 9 -15 10 8 11 15
0 33 -8 40 -17z m-43 -8 c3 -3 -5 -16 -18 -30 -24 -26 -66 -32 -105 -15 -13 5
0 6 33 3 48 -5 52 -4 46 12 -5 13 -4 16 4 11 7 -4 12 -2 12 3 0 6 -9 11 -19
11 -11 0 -23 5 -27 12 -5 8 3 9 31 5 20 -3 40 -9 43 -12z m-603 -5 c3 -6 -1
-7 -9 -4 -18 7 -21 14 -7 14 6 0 13 -4 16 -10z m39 -88 c-8 -2 -14 -10 -14
-18 0 -20 -12 -17 -38 11 l-23 24 22 25 22 26 23 -33 c17 -25 19 -33 8 -35z
m-137 16 c13 -12 30 -23 37 -24 17 -2 68 -35 63 -40 -2 -3 -19 2 -38 10 -19 7
-40 11 -48 8 -8 -2 -11 0 -8 5 4 6 -4 22 -18 37 -29 32 -21 35 12 4z m584 -26
c13 -5 16 -11 9 -22 -8 -13 -16 -12 -62 2 -29 10 -60 19 -68 21 -8 3 11 5 44
5 32 0 66 -3 77 -6z m83 -20 c18 10 19 9 9 -4 -7 -8 -10 -18 -6 -21 3 -4 0 -7
-8 -7 -8 -1 -27 -19 -44 -40 -30 -39 -49 -49 -60 -30 -10 17 -25 11 -18 -7 6
-15 5 -16 -9 -3 -9 8 -15 19 -15 24 2 11 -44 37 -54 30 -8 -5 13 -54 24 -54 4
0 7 -4 7 -10 0 -5 8 -18 18 -28 16 -18 18 -17 55 5 30 19 37 20 37 8 0 -9 -4
-13 -10 -10 -5 3 -10 -1 -10 -10 0 -12 5 -15 16 -11 13 5 15 1 10 -19 -5 -18
-2 -25 9 -25 8 0 15 -8 15 -17 1 -17 1 -17 11 0 8 14 14 15 24 7 14 -11 9 -53
-5 -45 -10 6 -15 -1 -24 -38 -4 -19 -3 -26 3 -22 6 3 3 -8 -7 -24 -12 -22 -22
-29 -35 -25 -19 6 -50 -13 -42 -26 3 -4 -2 -10 -10 -14 -18 -7 -15 24 4 48 8
9 11 20 7 24 -4 4 -12 -1 -17 -11 -6 -9 -16 -17 -23 -17 -8 0 -19 -7 -26 -15
-15 -18 0 -20 20 -2 12 10 12 9 0 -6 -7 -10 -20 -15 -27 -12 -8 2 -23 0 -35
-6 -11 -6 -27 -7 -36 -3 -9 4 -20 6 -24 6 -13 -3 -9 16 5 21 9 3 9 8 -2 18
-11 12 -14 12 -19 0 -3 -8 -11 2 -19 25 -17 47 -28 90 -13 52 14 -33 40 -45
40 -18 0 10 -4 30 -10 44 -5 14 -6 26 -1 26 10 0 25 -37 41 -96 19 -75 89 -59
81 19 -1 15 3 35 11 44 7 9 8 14 2 10 -8 -5 -12 9 -11 45 0 36 -5 54 -16 63
-9 7 -14 14 -12 17 3 3 -15 26 -40 51 -25 25 -45 50 -45 56 0 5 -10 11 -22 14
-13 2 0 3 29 3 28 -1 49 -4 47 -8 -8 -13 21 -14 34 -1 7 7 23 11 35 9 12 -3
28 -5 35 -5 6 -1 12 -8 12 -16 0 -14 12 -20 33 -16 5 1 6 -3 2 -9 -4 -7 -12
-7 -25 0 -25 14 -34 -3 -9 -18 16 -11 24 -8 56 22 34 31 36 36 23 52 -10 14
-11 16 0 7 10 -9 18 -9 34 -1z m-370 -58 c9 -8 18 -25 21 -37 19 -90 26 -139
21 -144 -3 -4 -7 -1 -7 5 -1 7 -2 15 -3 20 -1 4 -5 25 -9 47 -4 22 -10 52 -13
68 -3 16 -17 33 -32 42 -19 10 -22 14 -10 15 9 0 24 -7 32 -16z m187 -121 c13
-16 12 -17 -3 -4 -17 13 -22 21 -14 21 2 0 10 -8 17 -17z m-308 -18 c-3 -9 -8
-14 -10 -11 -3 3 -2 9 2 15 9 16 15 13 8 -4z m507 -115 c0 -5 -4 -10 -10 -10
-5 0 -10 5 -10 10 0 6 5 10 10 10 6 0 10 -4 10 -10z m-203 -142 c-3 -8 -6 -5
-6 6 -1 11 2 17 5 13 3 -3 4 -12 1 -19z m-32 -56 c-15 -16 -16 -15 -4 12 7 15
15 23 17 16 3 -7 -3 -19 -13 -28z m-36 6 c-16 -31 -49 -62 -79 -77 l-25 -12
25 20 c14 11 21 21 17 21 -14 0 26 59 42 63 30 8 32 7 20 -15z m-59 -8 c0 -15
-42 -60 -57 -60 -8 0 -13 -6 -10 -13 3 -8 -4 -14 -16 -15 -15 -1 -18 1 -9 7 7
4 12 12 10 18 -5 17 54 82 69 76 7 -3 13 -9 13 -13z m-100 -30 c-6 -12 -14
-20 -17 -17 -2 3 1 14 8 26 17 26 24 19 9 -9z m-83 -27 c-21 -21 -29 -25 -39
-15 -9 9 -9 15 1 25 11 10 13 10 7 0 -4 -7 -2 -13 4 -13 6 0 13 7 16 15 4 8
13 15 22 15 13 0 10 -7 -11 -27z m223 -71 c0 -13 -3 -13 -13 3 -8 11 -17 29
-20 40 -6 17 -4 17 13 -4 11 -13 20 -30 20 -39z m-62 1 c2 -13 -1 -23 -6 -23
-6 0 -17 -3 -25 -6 -17 -6 -42 30 -32 47 4 5 19 9 33 7 19 -2 28 -10 30 -25z
m-81 -9 c7 -18 -12 -34 -39 -34 -18 0 -25 30 -11 43 12 13 44 7 50 -9z m-100
-36 c-3 -7 -5 -2 -5 12 0 14 2 19 5 13 2 -7 2 -19 0 -25z m256 -58 c3 -13 0
-20 -10 -20 -8 0 -11 5 -8 10 3 6 2 10 -4 10 -6 0 -8 7 -5 15 8 19 20 12 27
-15z m-33 -35 c0 -5 -5 -3 -10 5 -5 8 -10 20 -10 25 0 6 5 3 10 -5 5 -8 10
-19 10 -25z m-352 -21 c4 -27 -26 -40 -46 -20 -21 20 -8 48 20 44 14 -2 24
-11 26 -24z m359 -36 c-3 -7 -5 -2 -5 12 0 14 2 19 5 13 2 -7 2 -19 0 -25z"/>
<path d="M2004 2765 c-5 -13 -9 -13 -23 -3 -9 7 -13 8 -9 4 4 -5 2 -16 -4 -25
-10 -13 -10 -14 1 -4 7 6 19 9 26 7 7 -3 15 4 18 15 6 24 -1 28 -9 6z"/>
<path d="M2036 2635 c-3 -8 -1 -15 4 -15 13 0 22 18 11 24 -5 3 -11 -1 -15 -9z"/>
<path d="M1968 2020 c-3 -8 3 -26 13 -39 11 -13 19 -30 19 -37 0 -8 5 -14 10
-14 16 0 12 64 -6 86 -8 10 -13 13 -9 7 3 -7 2 -13 -4 -13 -5 0 -11 6 -13 13
-3 8 -6 8 -10 -3z"/>
<path d="M2115 1350 c-3 -5 -1 -10 4 -10 6 0 11 5 11 10 0 6 -2 10 -4 10 -3 0
-8 -4 -11 -10z"/>
<path d="M2235 1180 c-3 -5 1 -10 10 -10 9 0 13 5 10 10 -3 6 -8 10 -10 10 -2
0 -7 -4 -10 -10z"/>
<path d="M2720 806 c0 -9 5 -16 10 -16 6 0 10 4 10 9 0 6 -4 13 -10 16 -5 3
-10 -1 -10 -9z"/>
<path d="M3090 600 c0 -19 3 -21 12 -12 9 9 9 15 0 24 -9 9 -12 7 -12 -12z"/>
<path d="M3070 564 c0 -8 5 -12 10 -9 6 4 8 11 5 16 -9 14 -15 11 -15 -7z"/>
<path d="M3137 534 c-10 -13 -14 -24 -9 -24 13 0 35 27 30 39 -1 5 -11 -2 -21
-15z"/>
<path d="M2540 81 c0 -6 4 -13 10 -16 6 -3 7 1 4 9 -7 18 -14 21 -14 7z"/>
<path d="M2358 2973 c7 -3 16 -2 19 1 4 3 -2 6 -13 5 -11 0 -14 -3 -6 -6z"/>
<path d="M0 2879 c0 -33 3 -39 20 -39 44 0 41 -72 -4 -109 -9 -8 -16 -23 -16
-35 1 -19 3 -18 26 9 50 60 66 75 92 88 34 16 39 69 7 76 -11 2 -25 11 -32 20
-7 9 -13 12 -13 7 0 -5 -7 -3 -15 4 -9 7 -27 14 -40 16 -23 2 -25 -1 -25 -37z"/>
<path d="M2750 2779 c0 -5 5 -7 10 -4 6 3 10 8 10 11 0 2 -4 4 -10 4 -5 0 -10
-5 -10 -11z"/>
<path d="M153 2694 c-42 -18 16 -47 72 -36 40 7 24 37 -21 39 -21 1 -45 0 -51
-3z"/>
<path d="M5035 2663 c-16 -3 -38 -11 -49 -19 -11 -8 -40 -14 -63 -14 -29 0
-43 -4 -43 -13 0 -10 -17 -14 -61 -15 -34 0 -65 -5 -68 -10 -6 -9 -53 -20
-116 -28 -16 -2 -34 -9 -40 -15 -7 -7 -4 -8 10 -4 16 6 17 5 5 -4 -8 -6 -31
-11 -52 -11 -20 0 -38 -4 -40 -8 -9 -25 -178 -46 -178 -22 0 4 -11 20 -25 36
-21 24 -27 27 -35 14 -9 -13 -11 -13 -20 0 -8 13 -11 13 -19 1 -5 -8 -16 -11
-24 -8 -9 3 -26 -4 -40 -17 -41 -38 -95 -54 -169 -49 -48 3 -73 0 -90 -11 -57
-37 -116 -47 -271 -46 -84 0 -181 5 -217 9 -50 7 -70 6 -87 -5 -17 -10 -23
-11 -26 -1 -3 6 -8 0 -12 -16 -5 -17 -3 -33 5 -42 7 -8 10 -24 7 -36 -3 -13
-1 -19 6 -16 7 2 14 19 17 38 8 53 18 13 14 -56 -3 -42 -1 -55 6 -45 8 13 10
12 10 -5 0 -14 3 -16 12 -7 14 14 48 -2 48 -22 0 -8 7 -17 16 -20 13 -5 14 -9
4 -21 -14 -16 -35 -21 -25 -5 5 8 -20 70 -28 70 -1 0 -2 -12 -1 -27 1 -43 14
-72 28 -67 7 3 13 -1 13 -9 0 -8 -7 -14 -16 -13 -10 1 -14 -5 -12 -14 9 -33 5
-63 -9 -68 -12 -4 -13 -2 -3 9 13 16 7 59 -8 59 -14 0 -11 -68 4 -80 6 -6 19
-16 29 -23 18 -13 37 -84 20 -73 -6 3 -10 -8 -9 -29 1 -41 17 -48 18 -7 0 15
3 21 6 14 2 -6 10 -9 16 -5 7 4 5 -2 -3 -12 -9 -11 -10 -16 -2 -11 6 4 12 2
12 -3 0 -6 -5 -11 -11 -11 -7 0 -9 -11 -6 -30 13 -65 27 -101 37 -95 15 9 93
-31 121 -62 28 -29 27 -25 16 -162 -3 -27 -11 -47 -21 -53 -9 -5 -16 -20 -16
-33 0 -14 -3 -25 -8 -25 -6 0 -45 -78 -44 -90 0 -3 -6 -12 -13 -20 -8 -8 -22
-35 -33 -60 l-19 -45 33 -48 c18 -26 38 -72 45 -103 12 -54 34 -80 82 -97 21
-8 21 -24 2 -70 -18 -43 -21 -45 -69 -49 -53 -3 -69 -28 -100 -156 -31 -128
-30 -122 -11 -122 8 0 15 -6 15 -14 0 -29 21 -27 97 10 l78 37 92 -12 c76 -9
102 -17 145 -44 87 -54 180 -95 233 -101 63 -8 185 -35 207 -47 10 -5 33 -9
52 -9 21 0 38 -6 43 -15 9 -15 32 -19 163 -31 75 -6 106 -19 113 -45 9 -34
-84 -86 -168 -94 -55 -6 -85 -18 -85 -35 0 -15 53 -33 103 -34 37 -1 59 -7 71
-18 19 -19 46 -23 61 -9 6 5 24 12 41 15 24 5 33 3 37 -8 4 -9 13 -16 21 -16
7 0 17 -8 21 -18 9 -24 19 -4 35 75 8 40 21 70 36 84 21 20 24 20 30 5 4 -9 1
-40 -6 -69 -7 -29 -13 -74 -14 -102 l-1 -50 103 -3 c97 -3 102 -2 102 18 0 11
-7 20 -15 20 -18 0 -37 34 -29 54 3 8 1 23 -5 33 -9 15 -10 14 -11 -13 0 -56
-73 -90 -76 -36 -1 13 -6 28 -12 34 -13 13 3 65 31 96 23 25 52 29 60 8 5 -12
11 -12 32 -3 21 10 25 18 23 46 -3 34 -5 35 -78 57 -41 13 -84 27 -95 33 -11
5 -31 12 -45 14 -35 7 -221 65 -245 76 -33 16 -336 89 -390 94 -133 14 -284
53 -314 82 -7 7 -16 28 -20 46 -7 35 -36 48 -36 18 -1 -46 -72 -66 -114 -31
-12 9 -28 41 -36 70 -12 47 -12 59 2 95 8 23 16 50 16 59 2 20 32 58 46 58 15
0 67 -72 75 -102 6 -27 7 -28 69 -21 34 3 70 10 79 14 9 5 30 9 45 9 16 0 44
11 62 25 26 18 38 22 52 15 10 -6 27 -10 38 -10 11 0 27 -7 36 -16 9 -9 39
-24 68 -33 29 -9 53 -23 55 -31 2 -8 7 -16 12 -18 5 -2 6 -10 3 -17 -3 -9 7
-20 29 -31 33 -15 37 -15 78 5 23 11 47 18 53 14 5 -3 42 -9 82 -13 51 -5 82
-14 105 -30 29 -20 36 -21 71 -11 30 9 44 9 61 -1 13 -7 44 -13 69 -14 67 -3
122 -13 133 -24 36 -36 36 -39 36 1010 0 810 -3 1020 -12 1019 -7 -1 -26 -4
-43 -6z m-735 -143 c0 -5 -4 -10 -10 -10 -5 0 -10 5 -10 10 0 6 5 10 10 10 6
0 10 -4 10 -10z m-903 -212 c-3 -7 -5 -2 -5 12 0 14 2 19 5 13 2 -7 2 -19 0
-25z m-17 -23 c11 -13 10 -14 -4 -9 -9 3 -16 10 -16 15 0 13 6 11 20 -6z m40
-105 c0 -5 -2 -10 -4 -10 -3 0 -8 5 -11 10 -3 6 -1 10 4 10 6 0 11 -4 11 -10z
m36 -137 c-8 -15 -15 -22 -16 -15 0 14 22 53 28 47 2 -2 -3 -16 -12 -32z m21
-105 c-3 -8 -6 -5 -6 6 -1 11 2 17 5 13 3 -3 4 -12 1 -19z m919 -119 c41 -11
44 -14 44 -44 0 -32 -1 -33 -40 -32 -38 2 -42 5 -60 45 -22 48 -19 50 56 31z
m112 -86 c-5 -25 -28 -28 -28 -4 0 12 6 21 16 21 9 0 14 -7 12 -17z m-574
-583 c-5 -5 -16 -3 -27 5 -17 12 -17 14 0 30 16 17 18 17 27 -4 6 -13 6 -25 0
-31z"/>
<path d="M2467 2642 c-29 -32 -22 -52 18 -52 33 0 35 2 35 35 0 27 -4 35 -18
35 -11 0 -26 -8 -35 -18z"/>
<path d="M3130 2540 c0 -6 7 -10 15 -10 8 0 15 2 15 4 0 2 -7 6 -15 10 -8 3
-15 1 -15 -4z"/>
<path d="M3158 2463 c7 -3 16 -2 19 1 4 3 -2 6 -13 5 -11 0 -14 -3 -6 -6z"/>
<path d="M3222 2268 c3 -7 13 -15 24 -17 16 -3 17 -1 5 13 -16 19 -34 21 -29
4z"/>
<path d="M3095 2171 c-3 -6 1 -11 9 -11 9 0 13 -7 11 -20 -2 -13 2 -20 11 -20
20 0 17 24 -5 44 -12 11 -21 14 -26 7z"/>
<path d="M0 2079 l0 -91 38 7 c20 3 55 7 76 8 53 3 55 18 6 46 -26 15 -42 31
-46 49 -10 48 -13 52 -34 52 -11 0 -20 5 -20 10 0 6 -4 10 -10 10 -6 0 -10
-37 -10 -91z"/>
<path d="M271 2107 c-7 -7 -17 -12 -24 -12 -23 0 -19 -32 5 -39 59 -15 85 7
50 42 -15 15 -23 17 -31 9z"/>
<path d="M744 2025 c-21 -21 -23 -28 -14 -46 10 -17 18 -20 53 -15 23 3 48 5
55 5 20 1 14 19 -19 51 -39 36 -43 37 -75 5z"/>
<path d="M3320 2031 c0 -5 5 -13 10 -16 6 -3 10 -2 10 4 0 5 -4 13 -10 16 -5
3 -10 2 -10 -4z"/>
<path d="M3170 2013 c0 -4 5 -15 10 -23 8 -13 10 -13 10 2 0 9 -4 20 -10 23
-5 3 -10 3 -10 -2z"/>
<path d="M2541 1994 c0 -11 3 -14 6 -6 3 7 2 16 -1 19 -3 4 -6 -2 -5 -13z"/>
<path d="M2483 1953 c9 -2 25 -2 35 0 9 3 1 5 -18 5 -19 0 -27 -2 -17 -5z"/>
<path d="M3214 1590 c7 -67 7 -68 16 -30 6 24 4 40 -6 55 -13 18 -14 16 -10
-25z"/>
<path d="M3290 1580 c0 -5 5 -10 11 -10 5 0 7 5 4 10 -3 6 -8 10 -11 10 -2 0
-4 -4 -4 -10z"/>
<path d="M611 1524 c0 -11 3 -14 6 -6 3 7 2 16 -1 19 -3 4 -6 -2 -5 -13z"/>
<path d="M3266 1501 c-3 -5 1 -11 9 -15 9 -3 15 0 15 9 0 16 -16 20 -24 6z"/>
<path d="M930 1481 c-13 -25 -13 -141 0 -141 5 0 12 -16 16 -35 13 -69 95
-101 102 -40 2 17 10 34 18 38 8 5 19 20 24 33 9 22 4 31 -30 66 -22 23 -40
46 -40 50 0 4 -18 17 -40 28 -39 20 -39 20 -50 1z"/>
<path d="M612 1460 c0 -19 2 -27 5 -17 2 9 2 25 0 35 -3 9 -5 1 -5 -18z"/>
<path d="M3167 1460 c3 -11 9 -20 14 -20 11 0 11 3 3 24 -9 23 -23 20 -17 -4z"/>
<path d="M3161 1388 c16 -31 16 -31 22 -15 3 7 -4 19 -15 26 -18 11 -18 10 -7
-11z"/>
<path d="M9 1339 c-6 -3 -9 -24 -7 -45 2 -31 7 -40 25 -42 11 -2 29 5 40 15
24 25 75 46 82 35 3 -5 16 4 29 19 l23 28 -91 -1 c-50 -1 -95 -5 -101 -9z"/>
<path d="M211 1336 c-8 -10 -9 -16 -1 -21 15 -9 52 5 47 18 -6 18 -32 20 -46
3z"/>
<path d="M3150 1301 c0 -5 5 -13 10 -16 6 -3 10 -2 10 4 0 5 -4 13 -10 16 -5
3 -10 2 -10 -4z"/>
<path d="M3300 1290 c-13 -8 -12 -10 3 -10 9 0 17 5 17 10 0 12 -1 12 -20 0z"/>
<path d="M3340 1198 c23 -9 24 -11 6 -17 -15 -6 -17 -9 -6 -16 8 -5 18 -1 27
10 20 28 16 35 -19 34 -32 0 -33 0 -8 -11z"/>
<path d="M3430 1140 c0 -5 4 -10 9 -10 6 0 13 5 16 10 3 6 -1 10 -9 10 -9 0
-16 -4 -16 -10z"/>
<path d="M2490 1101 c0 -18 19 -51 30 -51 17 0 11 26 -10 45 -13 11 -20 14
-20 6z"/>
<path d="M2530 1025 c0 -9 6 -12 15 -9 8 4 12 10 9 15 -8 14 -24 10 -24 -6z"/>
<path d="M3316 961 c-6 -10 7 -22 41 -40 20 -10 22 -9 16 6 -12 31 -46 52 -57
34z"/>
<path d="M3456 921 c-4 -7 -5 -15 -2 -18 9 -9 19 4 14 18 -4 11 -6 11 -12 0z"/>
<path d="M3315 859 c-9 -14 -2 -20 14 -10 8 6 9 11 3 15 -6 3 -14 1 -17 -5z"/>
<path d="M3501 854 c0 -11 3 -14 6 -6 3 7 2 16 -1 19 -3 4 -6 -2 -5 -13z"/>
<path d="M3471 832 c-13 -25 -14 -32 -2 -32 9 0 23 41 16 48 -2 2 -8 -5 -14
-16z"/>
<path d="M3281 817 c-10 -13 -9 -16 8 -22 11 -3 18 -12 15 -20 -3 -7 -1 -16 5
-20 6 -3 11 -1 11 5 0 6 5 8 11 4 12 -7 1 18 -23 49 -12 17 -16 17 -27 4z"/>
<path d="M3338 823 c-14 -4 -16 -8 -8 -24 14 -26 27 -24 32 6 3 14 2 24 -1 24
-3 -1 -14 -3 -23 -6z"/>
<path d="M3460 769 c-7 -11 -9 -23 -6 -27 3 -3 6 0 6 6 0 6 7 18 16 26 8 9 11
16 5 16 -6 0 -15 -9 -21 -21z"/>
<path d="M3381 724 c0 -11 3 -14 6 -6 3 7 2 16 -1 19 -3 4 -6 -2 -5 -13z"/>
<path d="M3350 695 c-6 -8 -9 -19 -6 -24 4 -5 2 -12 -4 -16 -5 -3 -10 -15 -10
-26 0 -27 20 -14 21 14 0 12 3 16 6 9 7 -18 23 -4 23 21 0 17 -2 19 -10 7 -5
-8 -12 -11 -16 -7 -4 3 -1 13 6 22 7 8 10 15 7 15 -2 0 -10 -7 -17 -15z"/>
<path d="M3287 655 c-15 -11 -16 -13 -2 -19 9 -3 18 1 22 10 8 21 1 25 -20 9z"/>
<path d="M3283 595 c-3 -9 -3 -18 -1 -21 3 -3 8 4 11 16 6 23 -1 27 -10 5z"/>
<path d="M35 582 c-3 -3 -5 -9 -5 -14 0 -11 78 -10 85 2 9 14 -66 26 -80 12z"/>
<path d="M0 570 c0 -5 5 -10 11 -10 5 0 7 5 4 10 -3 6 -8 10 -11 10 -2 0 -4
-4 -4 -10z"/>
<path d="M807 511 c-23 -42 -28 -81 -10 -81 10 0 32 35 33 51 0 9 9 19 21 22
15 4 20 12 17 29 -5 40 -31 31 -61 -21z"/>
<path d="M178 464 c-3 -3 -2 -21 3 -41 4 -20 5 -41 2 -46 -3 -5 0 -13 7 -17
10 -6 10 -15 1 -40 -12 -37 -8 -50 18 -50 22 0 56 46 41 55 -18 11 -10 33 14
39 13 3 27 14 31 23 13 36 -91 104 -117 77z"/>
<path d="M3200 455 c-10 -12 -16 -13 -28 -3 -11 9 -13 9 -9 1 4 -6 -4 -20 -18
-31 -14 -11 -22 -23 -17 -26 5 -3 17 3 27 14 10 11 23 20 29 20 6 0 17 9 24
20 14 24 10 26 -8 5z"/>
<path d="M3285 420 c-3 -5 -4 -14 -1 -19 3 -5 -1 -14 -9 -21 -13 -11 -14 -10
-9 4 3 9 1 16 -5 16 -16 0 -14 -25 3 -39 12 -10 17 -8 27 11 7 13 13 31 14 41
2 19 -10 23 -20 7z"/>
<path d="M3075 391 c-11 -9 -21 -23 -23 -31 -2 -9 9 -3 24 12 31 31 30 46 -1
19z"/>
<path d="M90 381 c0 -10 7 -25 16 -32 14 -11 18 -10 30 6 10 13 11 22 3 32
-17 20 -49 16 -49 -6z"/>
<path d="M3200 360 c0 -5 5 -10 11 -10 5 0 7 5 4 10 -3 6 -8 10 -11 10 -2 0
-4 -4 -4 -10z"/>
<path d="M3213 343 c-17 -6 -16 -48 1 -66 8 -7 17 -36 20 -63 15 -114 19 -134
27 -128 5 3 9 13 9 23 0 10 6 24 14 30 10 9 15 34 15 83 0 61 -2 71 -20 75
-10 3 -22 16 -25 29 -6 23 -16 28 -41 17z"/>
<path d="M0 288 c0 -30 5 -50 14 -55 8 -4 18 -28 23 -53 10 -53 29 -58 54 -15
18 30 25 87 12 83 -23 -6 -73 15 -73 31 0 9 -7 26 -15 37 -13 18 -14 15 -15
-28z"/>
<path d="M3103 313 c-21 -8 -15 -32 7 -30 12 1 20 8 20 19 0 18 -5 20 -27 11z"/>
<path d="M275 280 c3 -5 15 -10 26 -10 11 0 17 5 14 10 -3 6 -15 10 -26 10
-11 0 -17 -4 -14 -10z"/>
<path d="M3070 250 c-9 -6 -10 -10 -3 -10 6 0 15 5 18 10 8 12 4 12 -15 0z"/>
<path d="M3020 225 c-24 -14 -24 -14 -4 -15 12 0 24 7 28 15 6 18 7 18 -24 0z"/>
<path d="M3961 216 c-8 -9 -10 -27 -6 -45 6 -28 8 -30 28 -17 28 17 71 -1 57
-24 -13 -21 -2 -30 36 -30 27 0 36 5 44 24 8 21 14 24 50 22 43 -3 56 5 43 28
-7 12 -14 12 -47 1 -35 -12 -39 -12 -43 4 -3 12 -21 21 -56 29 -29 5 -61 13
-73 17 -13 4 -25 1 -33 -9z"/>
<path d="M3067 213 c-3 -5 1 -14 9 -21 12 -11 14 -9 14 8 0 20 -14 27 -23 13z"/>
<path d="M3070 150 c0 -24 15 -27 24 -4 9 22 8 24 -9 24 -8 0 -15 -9 -15 -20z"/>
<path d="M3075 110 c3 -5 8 -10 11 -10 2 0 4 5 4 10 0 6 -5 10 -11 10 -5 0 -7
-4 -4 -10z"/>
<path d="M152 103 c-20 -8 -3 -23 28 -23 15 0 30 7 34 15 4 11 -2 15 -22 14
-15 0 -33 -3 -40 -6z"/>
</g>
</svg>
