<?xml version="1.0" standalone="no"?>
<!DOCTYPE svg PUBLIC "-//W3C//DTD SVG 20010904//EN"
 "http://www.w3.org/TR/2001/REC-SVG-20010904/DTD/svg10.dtd">
<svg version="1.0" xmlns="http://www.w3.org/2000/svg"
 width="509.000000pt" height="339.000000pt" viewBox="0 0 509.000000 339.000000"
 preserveAspectRatio="xMidYMid meet">

<g transform="translate(0.000000,339.000000) scale(0.100000,-0.100000)"
fill="#000000" stroke="none">
<path d="M83 2293 c-17 -43 -28 -53 -60 -53 l-22 0 -1 -816 0 -816 47 6 c65 9
384 66 405 72 14 4 17 15 15 53 l-2 49 75 -5 c41 -3 89 -6 107 -6 33 -2 59
-17 29 -17 -9 0 -14 -4 -11 -10 3 -5 2 -10 -4 -10 -5 0 -13 5 -16 10 -4 6 -15
8 -26 5 -11 -4 -19 -2 -19 4 0 6 -5 11 -11 11 -6 0 -9 -7 -5 -15 3 -10 -1 -15
-12 -15 -13 0 -14 -2 -3 -9 9 -6 10 -11 3 -15 -6 -4 -9 -13 -6 -20 7 -19 -16
-32 -27 -15 -5 8 -7 25 -4 37 7 28 -10 53 -31 45 -8 -3 -14 -17 -14 -32 0 -15
-7 -36 -15 -47 -8 -10 -15 -27 -15 -37 0 -14 -5 -17 -20 -12 -13 4 -22 1 -26
-9 -9 -23 -33 -28 -57 -11 -12 8 -31 15 -42 14 -20 0 -20 0 0 -9 17 -6 13 -9
-20 -15 -22 -4 -54 -11 -71 -16 -19 -6 -40 -6 -56 0 -32 12 -76 3 -99 -20 -11
-11 -30 -19 -44 -19 l-25 0 0 -277 0 -276 453 8 c562 11 911 12 959 3 21 -3
66 -1 100 7 50 10 174 11 588 6 369 -4 475 -8 355 -11 -93 -3 405 -6 1108 -7
l1277 -1 0 24 c0 14 4 22 10 19 6 -3 10 -2 10 4 0 5 -4 11 -10 13 -11 3 -16
38 -25 178 -10 163 -16 224 -22 244 -3 10 0 22 7 26 19 11 -4 45 -31 47 -13 1
-29 9 -35 18 -10 14 -15 14 -33 4 -17 -12 -23 -10 -41 11 -11 13 -20 33 -18
45 1 11 -1 26 -6 33 -15 24 2 62 29 62 36 0 39 17 5 24 -23 4 -30 11 -30 28 0
13 -3 33 -6 46 l-7 23 -12 -23 c-7 -14 -8 -27 -3 -35 15 -19 -1 -36 -20 -21
-12 10 -16 10 -19 0 -6 -15 -23 -6 -23 13 0 23 -57 74 -69 62 -7 -7 -11 -7
-11 -1 0 6 5 15 10 20 14 14 -8 66 -24 56 -11 -7 -16 -8 -36 -11 -5 0 -10 -8
-10 -16 0 -8 -5 -15 -12 -15 -6 0 -20 -8 -31 -18 -14 -12 -21 -13 -24 -5 -2 7
-11 9 -19 6 -8 -3 -14 -2 -13 3 4 21 -2 33 -18 37 -13 4 -12 5 5 6 12 0 25 -5
28 -12 6 -17 46 -15 52 3 3 7 0 10 -6 6 -6 -3 -13 -2 -16 3 -3 5 4 12 17 15
20 6 21 7 4 17 -13 8 -22 7 -33 -1 -11 -10 -14 -9 -14 9 0 23 19 28 38 9 17
-17 40 5 25 24 -13 18 -16 78 -3 78 5 0 10 -5 10 -11 0 -5 4 -8 8 -5 4 2 9 -7
10 -22 1 -14 6 -30 11 -35 5 -5 7 -16 4 -23 -3 -8 1 -14 11 -14 11 0 16 9 16
26 0 21 4 25 20 21 12 -3 18 -1 14 5 -5 7 4 9 25 6 20 -3 31 0 31 8 0 7 5 14
11 16 5 2 11 18 11 36 1 22 5 31 13 28 7 -2 18 1 24 7 8 8 11 8 11 0 0 -6 -6
-13 -14 -16 -8 -3 -13 -12 -12 -19 3 -12 5 -20 23 -65 3 -10 5 -24 4 -31 -1
-6 3 -12 9 -12 5 0 10 18 10 41 0 26 4 38 11 34 6 -4 17 1 24 11 17 23 20 48
4 38 -6 -4 -5 3 2 17 l14 24 3 -22 c2 -13 9 -23 15 -23 7 0 5 -6 -5 -13 -9 -7
-18 -26 -20 -43 -2 -24 1 -30 21 -32 15 -2 21 0 17 7 -4 6 -1 11 7 11 7 0 19
12 26 26 10 23 9 29 -14 50 -25 23 -33 44 -15 44 5 0 14 -8 19 -17 9 -15 11
-14 12 12 2 17 1 47 0 68 -1 21 3 45 9 53 7 8 9 14 4 14 -5 0 -2 5 6 10 10 6
20 4 32 -7 10 -9 18 -12 18 -7 0 5 5 2 10 -6 8 -12 12 -13 19 -2 6 10 10 8 14
-9 4 -13 2 -28 -3 -33 -6 -6 -10 -20 -10 -33 0 -18 -6 -23 -27 -24 -26 -1 -27
-1 -5 -7 29 -9 31 -16 12 -39 -11 -13 -15 -32 -12 -61 4 -42 10 -47 55 -44 10
1 15 -3 12 -8 -4 -6 6 -11 22 -11 16 -1 21 -3 11 -6 -9 -2 -20 -14 -24 -26
l-8 -22 -5 23 c-6 24 -6 24 -29 4 -26 -23 -27 -28 -6 -50 20 -19 52 -26 68
-14 14 11 57 -11 48 -25 -4 -5 -19 -13 -34 -17 -20 -4 -29 -2 -37 11 -14 25
-24 10 -29 -42 -3 -42 -2 -45 22 -45 32 0 40 14 25 41 -11 21 -10 22 20 16 17
-4 31 -3 31 1 0 5 15 6 34 4 28 -3 34 -1 33 15 -1 10 -11 21 -22 24 l-20 6 20
8 c11 5 23 13 26 18 3 4 13 1 23 -8 15 -15 16 -14 16 15 l0 32 -26 -17 c-26
-17 -54 -14 -54 6 0 7 9 9 25 5 14 -4 25 -2 25 4 0 10 -18 14 -57 11 -27 -3
-38 15 -21 32 12 11 30 15 93 17 19 1 19 2 2 11 -17 10 -17 12 -2 35 20 32 14
41 -34 49 -48 8 -72 31 -50 47 11 8 10 9 -4 4 -10 -3 -27 -1 -37 4 -13 7 -20
6 -23 -3 -2 -6 -8 -9 -12 -5 -8 7 16 68 26 68 11 0 17 50 7 56 -6 4 2 17 16
31 14 13 26 28 26 34 0 6 4 7 10 4 13 -8 6 -61 -11 -81 -11 -13 -10 -17 2 -25
8 -5 18 -9 24 -9 5 0 4 -5 -3 -12 -14 -14 13 -37 46 -38 14 0 22 -6 22 -17 0
-9 -3 -13 -6 -10 -8 8 -44 -10 -44 -22 0 -4 6 -8 13 -8 6 0 20 -4 30 -8 15 -6
17 -1 17 44 0 43 -3 50 -17 48 -10 -1 -18 3 -18 8 0 6 8 9 18 8 13 -2 17 4 17
25 0 15 -5 33 -12 40 -9 9 -9 12 0 12 9 0 12 86 11 360 0 198 -4 360 -7 360
-4 0 -13 -9 -20 -20 -14 -24 -32 -26 -32 -5 0 8 -4 15 -10 15 -13 0 -13 -6 1
-32 16 -29 2 -34 -20 -7 -22 26 -27 49 -11 49 6 0 10 9 10 20 0 15 6 19 24 18
27 -2 25 -18 -2 -19 -13 0 -13 -2 4 -11 17 -8 26 -6 43 8 19 17 21 28 21 151
0 125 -1 133 -20 133 -10 0 -25 -6 -32 -13 -7 -8 -21 -12 -31 -9 -10 2 -17 1
-16 -4 5 -31 -2 -56 -16 -50 -8 3 -18 -2 -23 -11 -11 -18 -32 -9 -32 14 0 10
-6 13 -16 9 -9 -3 -18 -6 -20 -6 -2 0 -4 -7 -4 -15 0 -8 -6 -15 -14 -15 -7 0
-21 -11 -30 -25 -9 -14 -24 -25 -34 -25 -23 0 -42 -19 -42 -43 0 -15 -7 -18
-37 -16 -61 4 -103 -10 -113 -37 -5 -13 -16 -24 -24 -24 -20 0 -15 -34 7 -42
21 -9 23 -28 2 -28 -8 0 -15 -2 -15 -5 0 -12 26 -50 45 -66 l20 -18 -20 -15
c-11 -8 -37 -16 -57 -16 l-37 0 2 -65 c1 -36 -1 -65 -5 -65 -5 0 -8 -19 -8
-43 l0 -44 -102 -18 c-57 -10 -107 -19 -111 -19 -12 -1 -27 -29 -27 -49 0 -10
5 -15 10 -12 6 4 8 10 5 15 -3 4 1 13 8 19 15 12 156 41 200 41 25 0 27 -3 21
-22 -5 -13 -8 -33 -7 -46 1 -21 -9 -24 -52 -11 -5 2 -24 -1 -42 -5 -35 -8 -83
-68 -83 -103 0 -11 -7 -23 -15 -27 -10 -4 -15 1 -15 14 0 11 -6 20 -13 20 -8
0 -14 6 -15 13 -4 55 -16 117 -24 117 -5 0 -20 -11 -34 -25 -26 -26 -44 -32
-44 -15 0 6 -10 6 -27 -1 -16 -6 -29 -10 -30 -10 -17 5 -33 -2 -33 -14 0 -19
56 -21 63 -2 3 6 6 2 6 -10 1 -19 -5 -23 -31 -24 -73 -3 -100 9 -79 34 9 12 8
16 -3 20 -17 7 -29 -42 -14 -60 5 -7 9 -29 8 -50 -3 -62 -2 -64 28 -57 21 4
24 3 12 -5 -12 -9 -13 -12 -1 -20 17 -11 -1 -23 -23 -15 -18 7 -39 -34 -27
-51 4 -5 8 -21 9 -34 1 -33 9 -37 32 -16 31 28 26 -5 -6 -40 -24 -26 -27 -27
-36 -11 -9 16 -11 16 -35 1 -13 -9 -26 -15 -28 -13 -6 6 30 44 48 51 9 3 17
11 17 17 0 12 -23 13 -35 1 -6 -5 -26 -12 -45 -16 -29 -5 -37 -2 -48 14 -10
17 -10 21 0 21 7 1 29 14 48 30 19 17 40 30 47 30 7 0 13 5 13 10 0 13 -27 13
-35 0 -7 -12 -46 5 -58 26 -4 7 -18 11 -31 10 -17 -2 -26 3 -29 15 -5 20 7 26
18 9 3 -5 15 -10 26 -10 17 0 18 2 7 13 -7 8 -20 16 -28 20 -9 3 -10 6 -2 6 6
1 12 8 12 17 0 11 -5 14 -16 10 -11 -4 -15 -2 -11 8 6 14 -10 36 -26 36 -5 0
-7 -6 -4 -14 4 -10 0 -12 -14 -9 -22 6 -25 19 -7 26 10 3 10 9 -1 29 -9 19
-19 24 -34 20 -16 -4 -19 -2 -14 12 4 10 2 16 -6 15 -25 -3 -38 1 -32 11 6 10
-5 17 -40 22 -12 2 -19 -2 -18 -9 3 -15 -6 -16 -27 -3 -11 7 -8 11 15 21 23 9
26 13 13 16 -10 3 -18 13 -18 23 0 23 -29 40 -68 40 -21 0 -35 8 -46 25 -18
28 -36 33 -36 10 0 -8 -6 -15 -12 -16 -7 0 -26 -3 -41 -5 -19 -3 -26 -1 -22 6
3 5 13 10 22 10 9 0 13 3 10 7 -4 3 1 12 11 20 9 8 12 12 5 8 -7 -3 -24 -3
-38 1 -32 8 -33 36 -2 61 26 21 28 39 7 54 -11 8 -12 12 -2 16 6 2 12 14 11
26 0 22 0 22 -9 1 -6 -16 -15 -20 -38 -16 -26 3 -30 8 -30 33 1 15 -5 35 -12
44 -12 15 -5 20 22 16 4 0 5 6 1 15 -3 9 -9 12 -12 7 -3 -5 -14 -12 -23 -16
-24 -9 -36 32 -14 48 27 20 18 27 -11 8 -26 -17 -26 -17 -21 5 7 25 -7 40 -16
16 -3 -8 -10 -12 -16 -9 -6 4 -8 11 -4 16 3 6 -2 17 -12 25 -11 9 -13 12 -5 8
9 -4 12 -3 7 4 -3 6 -26 10 -50 9 -24 -1 -42 -5 -40 -8 6 -10 -69 -17 -86 -9
-9 5 -25 1 -43 -12 -15 -11 -31 -18 -34 -14 -11 11 -43 -15 -43 -34 0 -11 -4
-20 -10 -20 -15 0 -12 23 5 46 8 10 15 30 15 43 0 13 3 21 8 17 4 -4 7 -13 7
-19 0 -5 6 -11 13 -13 7 -1 8 0 3 2 -6 4 -6 14 1 30 9 18 9 27 0 36 -8 8 -9 6
-6 -9 5 -18 1 -20 -23 -19 -17 2 -35 6 -41 9 -6 4 -16 1 -24 -6 -7 -8 -19 -12
-25 -10 -7 3 -30 -14 -51 -36 -38 -40 -65 -51 -77 -31 -3 6 -11 10 -17 10 -7
0 -6 -5 1 -14 9 -11 9 -16 0 -22 -7 -4 -9 -3 -6 3 4 6 -4 13 -18 15 -14 3 -25
2 -26 -1 -3 -27 -9 -44 -19 -56 -14 -17 -40 -20 -40 -5 0 6 -5 10 -10 10 -18
0 -6 -25 15 -31 13 -3 26 3 38 18 10 13 22 21 27 18 5 -3 10 3 13 12 2 10 3 5
3 -12 -1 -33 -11 -47 -41 -59 -20 -7 -20 -8 1 -24 11 -9 21 -20 22 -24 1 -5 2
-9 3 -10 9 -31 6 -53 -7 -63 -10 -7 -15 -19 -11 -27 4 -11 -8 -27 -34 -48 -37
-29 -45 -58 -12 -46 9 4 13 1 11 -6 -3 -7 -11 -13 -19 -14 -35 -2 -39 -5 -39
-24 0 -14 -7 -20 -21 -20 -16 0 -20 -5 -16 -20 3 -11 2 -22 -2 -24 -4 -3 -8 5
-8 16 -2 24 -14 38 -20 22 -3 -10 -41 -6 -103 10 -8 3 -18 5 -22 5 -4 1 -9 10
-13 20 -3 10 -17 22 -32 26 -38 9 -14 27 25 19 25 -5 31 -11 27 -24 -4 -13 2
-21 26 -29 39 -14 42 -14 34 -1 -3 6 -1 10 4 10 6 0 11 -7 11 -15 0 -8 7 -15
16 -15 14 0 14 3 4 15 -14 17 0 21 16 5 7 -7 9 -1 6 20 -2 16 -8 30 -13 30 -5
0 -9 4 -9 9 0 5 15 5 35 1 28 -6 37 -4 52 13 14 17 14 19 2 9 -14 -10 -18 -10
-23 4 -5 12 -14 15 -40 10 -28 -5 -37 -3 -50 16 -9 12 -13 24 -9 27 3 3 8 0
10 -6 6 -15 49 -17 58 -3 3 6 -3 10 -14 10 -25 0 -28 20 -3 20 9 0 25 7 35 15
11 7 25 11 32 9 9 -4 11 2 7 21 -4 23 -6 24 -21 11 -12 -11 -21 -12 -31 -5
-12 9 -11 10 4 5 19 -7 19 -6 3 12 -17 19 -17 20 0 27 14 6 10 10 -21 17 -42
9 -56 4 -39 -13 13 -13 4 -51 -11 -46 -6 2 -10 18 -8 36 2 35 -4 37 -54 16
-38 -16 -36 -15 -64 -15 -12 0 -20 -7 -20 -16 0 -12 6 -15 25 -10 26 7 99 -25
93 -41 -2 -4 7 -9 20 -11 35 -5 26 -22 -10 -18 -18 2 -32 9 -30 15 1 6 -5 11
-13 11 -8 0 -15 5 -15 10 0 6 -8 5 -19 -2 -11 -7 -17 -16 -15 -20 3 -5 -6 -3
-20 4 -14 6 -26 15 -26 20 0 6 -14 6 -32 2 -18 -4 -45 -6 -60 -5 -16 1 -28 -3
-28 -9 0 -5 15 -10 33 -11 30 -1 31 -1 7 -9 -14 -4 -19 -8 -11 -9 11 -1 11 -4
1 -16 -6 -8 -8 -20 -4 -27 4 -7 -1 -5 -12 4 -16 14 -23 15 -32 6 -6 -6 -15 -8
-19 -4 -4 4 -1 11 7 16 20 12 9 20 -18 13 -12 -3 -19 -9 -16 -14 3 -5 1 -9 -5
-9 -5 0 -16 -3 -25 -6 -10 -4 -16 -1 -16 10 0 8 -13 22 -30 31 -16 9 -30 20
-30 25 0 6 -6 10 -14 10 -8 0 -22 7 -31 16 -14 14 -20 15 -43 3 -35 -17 -70
-20 -78 -8 -3 5 -2 8 3 7 4 -2 9 2 11 7 2 6 -17 14 -42 19 -46 8 -56 18 -34
32 6 4 14 2 16 -4 7 -23 19 -12 14 13 -4 24 -22 36 -22 15 0 -16 -37 -12 -44
5 -3 8 -14 15 -25 15 -11 0 -23 5 -26 10 -3 6 -2 10 3 10 6 0 8 9 5 21 -4 14
-9 17 -16 10 -16 -16 -27 -13 -21 4 4 8 3 22 0 31 -5 14 -9 14 -22 3 -17 -14
-29 -3 -40 37 -5 21 -47 38 -60 25 -3 -3 -11 -6 -17 -6 -7 0 -13 -11 -15 -23
l-4 -24 -24 23 c-13 12 -24 17 -24 11 0 -22 -30 -12 -39 12 -12 31 -19 32
-136 35 -99 2 -100 2 -135 -29 -52 -46 -66 -52 -80 -35 -7 8 -20 15 -29 15 -9
1 -25 19 -36 43 -17 35 -25 42 -49 42 -22 -1 -33 -8 -46 -33 -20 -36 -30 -32
-30 12 0 28 -1 29 -15 10 -13 -18 -14 -16 -15 26 0 33 -3 41 -10 30 -5 -8 -10
-32 -10 -52 0 -20 -5 -40 -10 -43 -6 -3 -10 2 -10 12 0 14 -2 15 -9 4 -13 -19
-27 -7 -36 31 l-7 33 -10 -27 c-12 -34 -25 -36 -31 -5 l-4 22 -8 -22 c-14 -44
-35 -19 -35 42 0 34 -15 55 -23 33 -3 -9 -12 -4 -29 13 -24 26 -25 26 -48 9
-13 -10 -29 -16 -35 -14 -6 3 -17 -7 -25 -20 -10 -20 -17 -23 -31 -16 -9 5
-50 13 -91 16 -40 4 -86 12 -103 19 -16 6 -55 12 -85 13 -49 2 -59 6 -88 38
l-33 35 -16 -38z m167 -62 c0 -13 -26 -32 -33 -24 -14 13 -6 33 13 33 11 0 20
-4 20 -9z m380 -11 c0 -5 -4 -10 -10 -10 -5 0 -10 5 -10 10 0 6 5 10 10 10 6
0 10 -4 10 -10z m-443 -162 c-3 -7 -5 -2 -5 12 0 14 2 19 5 13 2 -7 2 -19 0
-25z m2759 17 c-8 -8 -17 -15 -20 -15 -3 0 -3 7 0 15 4 8 13 15 21 15 12 0 12
-2 -1 -15z m-2652 -30 c21 -9 36 -19 33 -21 -3 -3 -14 -1 -25 5 -12 6 -29 11
-39 11 -11 0 -28 7 -39 16 -18 15 -18 15 7 10 14 -3 42 -13 63 -21z m2816 5
c11 -7 7 -10 -17 -10 -18 0 -33 -5 -33 -11 0 -5 -5 -7 -10 -4 -6 4 -8 10 -5
15 3 4 0 10 -7 12 -7 3 3 5 22 6 19 1 42 -3 50 -8z m1690 -5 c-7 -8 -16 -12
-21 -9 -13 8 -1 24 18 24 13 0 13 -3 3 -15z m50 -10 c-14 -17 -45 -21 -35 -5
4 6 11 8 16 5 5 -4 9 -1 9 4 0 6 5 11 11 11 8 0 8 -5 -1 -15z m-4645 -15 c3
-6 -5 -10 -19 -10 -14 0 -28 5 -31 10 -3 6 5 10 19 10 14 0 28 -4 31 -10z
m4748 3 c-7 -2 -19 -2 -25 0 -7 3 -2 5 12 5 14 0 19 -2 13 -5z m-2116 -9 c-3
-3 -12 -4 -19 -1 -8 3 -5 6 6 6 11 1 17 -2 13 -5z m437 -3 c3 -5 -5 -8 -19 -7
-14 0 -25 4 -25 9 0 10 38 9 44 -2z m1607 -5 c9 -4 16 -15 15 -24 -2 -27 -42
-73 -58 -67 -11 5 -14 -2 -13 -27 1 -18 -3 -36 -9 -40 -8 -6 -7 -8 2 -8 7 0
12 -13 12 -29 0 -16 -6 -32 -12 -35 -10 -5 -10 -7 0 -12 17 -8 15 -31 -3 -38
-15 -6 -17 -26 -2 -37 4 -3 5 -13 2 -22 -8 -18 -35 -11 -35 9 0 8 -4 14 -10
14 -5 0 -10 -9 -10 -20 0 -26 -39 -70 -56 -63 -8 3 -14 15 -14 28 0 12 -5 37
-11 55 -10 27 -9 34 4 41 9 5 22 22 30 38 13 25 12 29 -4 40 -17 10 -19 8 -19
-26 -1 -31 -3 -35 -11 -21 -5 10 -9 50 -7 90 l3 73 42 13 c29 9 40 18 36 27
-2 8 -8 14 -11 13 -25 -3 -43 4 -39 15 5 13 10 13 41 1 15 -6 18 -4 14 8 -5
13 3 15 50 13 31 -2 64 -6 73 -9z m-4636 -6 c3 -5 -1 -10 -10 -10 -9 0 -13 5
-10 10 3 6 8 10 10 10 2 0 7 -4 10 -10z m863 -2 c-6 -18 -28 -21 -28 -4 0 9 7
16 16 16 9 0 14 -5 12 -12z m-148 -2 c0 -2 -9 -6 -20 -9 -11 -3 -20 -1 -20 4
0 5 9 9 20 9 11 0 20 -2 20 -4z m-96 -36 c25 -10 46 -21 46 -23 0 -2 -21 0
-47 4 -66 11 -75 11 -68 -1 8 -13 2 -13 -29 4 l-27 14 38 10 c21 5 39 10 40
11 1 1 22 -8 47 -19z m2194 6 c-7 -8 -15 -12 -17 -11 -5 6 10 25 20 25 5 0 4
-6 -3 -14z m97 -16 c3 -6 -1 -7 -9 -4 -18 7 -21 14 -7 14 6 0 13 -4 16 -10z
m-1938 -6 c-3 -3 -12 -4 -19 -1 -8 3 -5 6 6 6 11 1 17 -2 13 -5z m-284 -41
c-7 -2 -21 -2 -30 0 -10 3 -4 5 12 5 17 0 24 -2 18 -5z m292 -33 c4 -6 -5 -10
-19 -10 -14 0 -26 5 -26 10 0 6 9 10 19 10 11 0 23 -4 26 -10z m-245 -18 c0
-14 -11 -21 -26 -15 -21 8 -17 23 6 23 11 0 20 -4 20 -8z m125 -22 c3 -5 1
-10 -4 -10 -6 0 -11 5 -11 10 0 6 2 10 4 10 3 0 8 -4 11 -10z m235 0 c0 -5 -6
-10 -14 -10 -8 0 -18 5 -21 10 -3 6 3 10 14 10 12 0 21 -4 21 -10z m90 -11 c0
-6 -4 -7 -10 -4 -5 3 -10 11 -10 16 0 6 5 7 10 4 6 -3 10 -11 10 -16z m-970
-11 c0 -5 -10 -6 -22 -3 -36 11 -41 22 -8 17 16 -2 30 -9 30 -14z m580 6 c0
-2 -9 -4 -21 -4 -11 0 -18 4 -14 10 5 8 35 3 35 -6z m931 7 c4 -1 12 -14 19
-31 7 -17 31 -40 56 -55 29 -17 41 -30 38 -40 -4 -8 -1 -15 6 -15 6 0 8 5 5
10 -9 15 18 12 40 -4 16 -12 10 -14 -54 -20 -79 -8 -97 -2 -66 20 17 13 18 16
5 24 -8 5 -21 10 -28 10 -9 0 -12 10 -10 28 2 17 -2 27 -9 26 -7 -1 -20 -2
-28 -2 -8 -1 -15 -9 -15 -17 0 -8 -4 -15 -10 -15 -5 0 -10 5 -10 11 0 6 -7 9
-15 6 -19 -8 -28 9 -21 39 5 19 11 24 26 19 11 -4 20 -2 20 3 0 7 12 8 51 3z
m1469 1 c0 -13 -12 -22 -22 -16 -10 6 -1 24 13 24 5 0 9 -4 9 -8z m-1114 -41
c9 -11 28 -15 70 -14 50 1 56 0 42 -11 -24 -17 -23 -24 5 -29 13 -3 8 -5 -15
-6 -23 0 -38 -6 -38 -13 -1 -9 -5 -7 -13 3 -9 12 -16 13 -28 6 -10 -6 -24 -7
-35 -2 -17 8 -16 9 9 13 15 2 27 8 27 14 0 5 -7 8 -15 4 -8 -3 -15 -1 -15 4 0
6 -9 10 -19 10 -14 0 -18 5 -14 20 3 11 0 20 -6 20 -6 0 -11 5 -11 10 0 14 41
-7 56 -29z m-1966 -30 c0 -10 -3 -12 -8 -5 -4 6 -15 13 -24 17 -10 3 -18 11
-18 16 0 7 9 6 25 -1 14 -6 25 -18 25 -27z m797 13 c-3 -3 -12 -4 -19 -1 -8 3
-5 6 6 6 11 1 17 -2 13 -5z m-87 -24 c0 -5 -2 -10 -4 -10 -3 0 -8 5 -11 10 -3
6 -1 10 4 10 6 0 11 -4 11 -10z m-939 -33 c-10 -9 -11 -8 -5 6 3 10 9 15 12
12 3 -3 0 -11 -7 -18z m989 13 c0 -5 -2 -10 -4 -10 -3 0 -8 5 -11 10 -3 6 -1
10 4 10 6 0 11 -4 11 -10z m600 0 c0 -5 -5 -10 -11 -10 -5 0 -7 5 -4 10 3 6 8
10 11 10 2 0 4 -4 4 -10z m540 -3 c0 -15 -44 -39 -54 -30 -13 13 -5 23 20 23
14 0 23 4 19 10 -3 6 -1 10 4 10 6 0 11 -6 11 -13z m-1300 -21 c0 -3 -4 -8
-10 -11 -5 -3 -10 -1 -10 4 0 6 5 11 10 11 6 0 10 -2 10 -4z m734 -37 c-6 -10
-39 4 -49 21 -3 5 7 5 25 -1 16 -6 27 -15 24 -20z m-897 6 c39 -8 84 -20 98
-25 30 -11 47 -6 39 13 -6 16 42 21 52 5 4 -6 3 -8 -4 -4 -15 9 -23 -7 -12
-24 8 -13 24 -16 82 -19 12 -1 15 -6 11 -17 -5 -14 -3 -14 15 -3 16 10 18 16
10 26 -16 19 -8 21 32 7 21 -8 27 -13 16 -13 -16 -1 -17 -4 -8 -13 7 -7 23
-14 35 -14 12 -1 44 -5 71 -9 39 -7 48 -6 41 5 -5 9 -4 11 4 6 6 -4 9 -12 6
-17 -4 -5 1 -12 9 -15 22 -8 20 -24 -3 -24 -18 0 -81 22 -113 40 -10 6 -18 6
-20 0 -5 -15 -50 -21 -65 -8 -7 6 -16 8 -20 4 -3 -3 -17 1 -29 9 -19 12 -23
12 -26 1 -2 -11 -14 -9 -52 10 -36 17 -53 21 -62 13 -14 -11 -54 4 -54 21 0 5
-7 7 -15 4 -8 -3 -28 4 -44 15 -16 12 -36 21 -44 21 -9 0 -19 5 -22 10 -8 12
-13 13 72 -5z m1996 -18 c34 5 44 -16 26 -56 -11 -24 -16 -28 -28 -18 -10 9
-9 2 4 -23 10 -19 14 -32 9 -27 -8 8 -43 -57 -44 -82 0 -24 -44 -81 -58 -76
-7 3 -10 0 -7 -5 3 -6 -4 -10 -17 -11 -40 -1 -61 -7 -69 -21 -7 -10 -9 -10 -9
0 0 6 -5 12 -11 12 -5 0 -7 -4 -4 -10 3 -5 1 -10 -6 -10 -11 0 -9 41 6 88 7
21 5 22 -39 21 -38 -2 -46 -6 -46 -21 0 -11 -4 -17 -9 -14 -5 3 -7 16 -3 28 5
19 2 21 -31 15 -28 -4 -42 -1 -59 14 l-23 20 40 -2 c71 -2 82 0 65 11 -8 5
-22 7 -32 4 -22 -7 -33 12 -13 24 16 9 115 -32 115 -48 0 -4 6 -10 14 -13 12
-5 14 6 9 64 -5 62 -4 69 11 63 9 -3 16 -17 16 -30 0 -15 6 -24 15 -24 20 0
19 -19 -1 -27 -9 -3 -20 0 -25 8 -6 10 -9 11 -9 1 0 -7 11 -18 25 -24 27 -12
33 -28 11 -28 -9 0 -12 -7 -9 -20 5 -21 22 -29 91 -44 31 -7 56 32 49 76 -9
56 -28 123 -38 133 -12 12 -12 45 1 45 6 0 10 7 10 16 0 15 2 15 23 2 12 -8
34 -13 50 -11z m-2193 -3 c0 -8 -4 -12 -10 -9 -5 3 -10 10 -10 16 0 5 5 9 10
9 6 0 10 -7 10 -16z m74 7 c3 -5 0 -11 -8 -14 -15 -6 -26 1 -26 15 0 11 27 10
34 -1z m1556 -11 c3 -4 11 -9 19 -12 17 -5 23 -49 7 -46 -6 1 -25 -5 -42 -15
l-32 -16 -4 29 c-3 17 -1 30 4 30 4 0 8 5 8 11 0 12 -41 2 -51 -12 -3 -5 -20
-4 -38 1 -19 5 -37 7 -42 5 -4 -3 -10 -1 -14 5 -4 6 13 10 45 10 29 0 49 4 45
9 -11 19 82 20 95 1z m1200 11 c0 -6 -4 -13 -10 -16 -5 -3 -10 1 -10 9 0 9 5
16 10 16 6 0 10 -4 10 -9z m-2700 -16 c10 -12 10 -15 -4 -15 -9 0 -16 7 -16
15 0 8 2 15 4 15 2 0 9 -7 16 -15z m2885 5 c3 -5 1 -10 -4 -10 -6 0 -11 5 -11
10 0 6 2 10 4 10 3 0 8 -4 11 -10z m-975 -20 c20 -12 9 -21 -18 -13 -12 3 -19
9 -16 14 7 11 15 11 34 -1z m958 4 c32 -9 27 -21 -7 -16 -31 4 -53 -24 -29
-40 9 -5 5 -8 -11 -8 -18 0 -22 -4 -18 -20 6 -23 -5 -26 -23 -5 -13 15 -6 28
35 72 23 25 23 25 53 17z m-161 -10 c-12 -12 14 -44 35 -44 17 0 19 -2 8 -16
-11 -13 -10 -16 7 -20 12 -3 23 -14 26 -25 6 -22 6 -22 -27 -9 -14 5 -26 16
-26 25 0 20 -19 19 -42 -2 -13 -11 -22 -13 -29 -6 -12 12 14 43 37 43 19 0 18
16 -2 24 -13 5 -14 9 -4 21 7 8 15 15 18 15 3 0 2 -3 -1 -6z m78 -4 c-3 -5
-12 -10 -18 -10 -7 0 -6 4 3 10 19 12 23 12 15 0z m-1650 -28 c-3 -3 -11 0
-18 7 -9 10 -8 11 6 5 10 -3 15 -9 12 -12z m580 1 c18 -14 18 -15 2 -9 -10 3
-28 6 -38 6 -11 0 -17 5 -14 10 9 14 27 12 50 -7z m-740 -4 c11 -17 -1 -21
-15 -4 -8 9 -8 15 -2 15 6 0 14 -5 17 -11z m32 -21 c-3 -8 -6 -5 -6 6 -1 11 2
17 5 13 3 -3 4 -12 1 -19z m1371 -19 c-21 -14 -28 -11 -21 9 9 25 27 34 31 15
2 -8 -2 -19 -10 -24z m-795 19 c-13 -6 -23 -15 -23 -19 0 -5 -13 -7 -29 -6
-33 2 -31 17 2 17 12 0 29 5 37 10 8 5 20 9 25 9 6 0 0 -5 -12 -11z m-843 -8
c0 -13 -30 -13 -50 0 -11 7 -7 10 18 10 17 0 32 -4 32 -10z m-95 -10 c4 -6 -5
-10 -20 -10 -15 0 -24 4 -20 10 3 6 12 10 20 10 8 0 17 -4 20 -10z m3365 0 c0
-5 -4 -10 -10 -10 -5 0 -10 5 -10 10 0 6 5 10 10 10 6 0 10 -4 10 -10z m-2892
-18 c2 -7 -6 -12 -17 -12 -21 0 -27 11 -14 24 9 9 26 2 31 -12z m532 8 c8 -5
12 -12 8 -15 -9 -9 -48 4 -48 16 0 12 21 11 40 -1z m820 6 c0 -2 -8 -10 -17
-17 -16 -13 -17 -12 -4 4 13 16 21 21 21 13z m-2178 -60 c-22 -44 -52 -77 -52
-58 0 5 7 15 15 22 8 7 15 19 15 27 0 18 31 65 38 58 3 -3 -4 -25 -16 -49z
m2568 38 c0 -8 -5 -12 -10 -9 -6 4 -8 11 -5 16 9 14 15 11 15 -7z m-441 -13
c5 -7 14 -10 20 -7 6 4 11 5 11 2 0 -2 -15 -13 -33 -25 -39 -24 -73 -22 -69 5
2 11 4 24 4 29 2 15 58 12 67 -4z m-2684 -1 c3 -5 1 -10 -4 -10 -6 0 -11 5
-11 10 0 6 2 10 4 10 3 0 8 -4 11 -10z m480 -11 c4 -13 2 -25 -5 -29 -7 -4
-12 -20 -12 -34 0 -15 -4 -29 -9 -32 -10 -6 -12 40 -3 85 7 36 20 40 29 10z
m2435 1 c-8 -5 -7 -9 4 -13 9 -4 15 -16 14 -31 -1 -13 -6 -22 -11 -19 -5 3 -6
11 -3 19 6 17 1 17 -26 3 -11 -6 -18 -7 -15 -1 4 5 11 21 17 36 6 16 15 24 21
20 8 -5 8 -9 -1 -14z m180 5 c0 -9 -6 -12 -15 -9 -8 4 -12 10 -9 15 8 14 24
10 24 -6z m-2837 -19 c12 -10 15 -16 7 -21 -6 -4 -12 -5 -13 -4 -2 2 -9 12
-16 22 -16 20 -3 22 22 3z m1035 8 c12 -4 22 -10 22 -15 0 -15 -48 -10 -54 6
-6 16 -2 18 32 9z m2002 -2 c0 -13 -12 -22 -22 -16 -10 6 -1 24 13 24 5 0 9
-4 9 -8z m-2421 -28 c-15 -18 -22 -13 -13 10 3 9 10 13 16 10 5 -3 4 -12 -3
-20z m276 5 c17 -5 46 -13 65 -18 19 -5 27 -10 18 -10 -11 -1 -18 -9 -18 -20
0 -25 -18 -31 -50 -15 -14 7 -34 16 -45 20 -18 6 -18 8 -2 11 25 6 21 22 -8
29 -15 4 -32 1 -40 -6 -9 -7 -18 -10 -22 -6 -4 3 2 13 13 21 18 14 26 13 89
-6z m275 2 c0 -3 -4 -12 -9 -20 -8 -12 -11 -12 -24 1 -11 11 -13 18 -5 26 10
10 38 6 38 -7z m71 -1 c9 0 22 -6 28 -14 11 -13 7 -13 -26 -4 -48 13 -55 17
-47 30 4 6 10 6 17 -1 6 -6 19 -11 28 -11z m1486 6 c-6 -15 32 -56 51 -56 7 0
12 7 12 16 0 11 6 14 23 9 33 -11 44 -24 28 -34 -10 -7 -3 -14 28 -29 35 -17
43 -18 48 -6 3 8 11 14 18 14 14 0 25 -29 31 -78 2 -26 -1 -35 -18 -41 -15 -5
-18 -10 -10 -15 23 -14 2 -23 -38 -16 -28 5 -45 3 -57 -6 -31 -24 -43 -18 -30
16 8 20 14 25 19 17 6 -9 10 -8 18 3 25 39 34 48 47 43 7 -3 13 0 13 7 0 7 7
10 15 6 8 -3 15 -2 15 3 0 14 -37 20 -49 8 -7 -7 -23 4 -50 34 -22 24 -41 38
-41 32 0 -21 -26 -15 -42 9 -13 19 -18 21 -31 10 -13 -11 -15 -7 -19 28 -2 29
0 40 10 40 8 0 12 -6 9 -14z m-1947 -6 c0 -5 -4 -10 -10 -10 -5 0 -10 5 -10
10 0 6 5 10 10 10 6 0 10 -4 10 -10z m2175 0 c3 -5 -1 -10 -9 -10 -8 0 -18 5
-21 10 -3 6 1 10 9 10 8 0 18 -4 21 -10z m-2525 -12 c0 -7 -5 -20 -10 -28 -8
-12 -10 -9 -10 13 0 15 5 27 10 27 6 0 10 -6 10 -12z m2400 2 c0 -5 -2 -10 -4
-10 -3 0 -8 5 -11 10 -3 6 -1 10 4 10 6 0 11 -4 11 -10z m240 -12 c0 -19 -2
-20 -10 -8 -13 19 -13 30 0 30 6 0 10 -10 10 -22z m-2010 -3 c17 -20 -5 -20
-40 0 l-25 14 26 1 c15 0 32 -7 39 -15z m2798 -10 c0 -30 -6 -31 -24 -7 -18
24 -17 32 5 32 13 0 19 -7 19 -25z m-3525 -15 c-6 -24 -43 -27 -43 -4 0 8 4
13 9 10 5 -3 12 1 15 10 8 22 25 8 19 -16z m474 0 c2 0 2 -4 -1 -9 -3 -4 -26
-4 -51 2 -35 8 -42 13 -34 23 9 11 17 11 46 -1 20 -8 37 -15 40 -15z m2183 20
c0 -5 -2 -10 -4 -10 -3 0 -8 5 -11 10 -3 6 -1 10 4 10 6 0 11 -4 11 -10z
m-1335 -10 c3 -5 2 -10 -4 -10 -5 0 -13 5 -16 10 -3 6 -2 10 4 10 5 0 13 -4
16 -10z m2528 -12 c43 -16 32 -26 -25 -21 -29 3 -68 5 -85 6 -31 0 -32 2 -17
18 16 18 73 17 127 -3z m111 7 c18 -14 16 -15 -30 -15 -47 0 -48 1 -24 14 32
18 32 18 54 1z m-3774 -15 c0 -5 -7 -10 -15 -10 -8 0 -15 5 -15 10 0 6 7 10
15 10 8 0 15 -4 15 -10z m970 0 c9 -6 11 -12 5 -17 -6 -5 -9 -6 -8 -4 2 2 -5
10 -15 17 -19 15 -5 19 18 4z m2030 0 c-20 -13 -33 -13 -25 0 3 6 14 10 23 10
15 0 15 -2 2 -10z m-2812 -18 c2 -7 -2 -10 -12 -6 -9 3 -16 11 -16 16 0 13 23
5 28 -10z m2386 -23 c18 -36 8 -37 -19 -3 -18 23 -24 25 -43 15 -18 -10 -22
-9 -22 3 0 36 64 24 84 -15z m-2167 2 c13 -20 8 -31 -14 -31 -7 0 -13 7 -13
15 0 14 -11 19 -37 16 -6 -1 -14 3 -18 9 -4 6 8 10 32 10 27 0 42 -6 50 -19z
m2553 -1 c-8 -5 -17 -7 -19 -4 -3 3 1 9 9 14 8 5 17 7 19 4 3 -3 -1 -9 -9 -14z
m-2042 -19 c-2 -9 -10 -17 -19 -19 -13 -2 -15 3 -12 22 3 16 10 23 20 19 7 -3
13 -13 11 -22z m187 -104 c2 -45 1 -72 -2 -59 -2 12 -9 22 -14 22 -5 0 -9 7
-9 15 0 8 -4 15 -10 15 -5 0 -10 5 -10 10 0 6 9 10 20 10 16 0 18 4 10 24 -5
13 -6 27 -2 30 3 4 -4 13 -16 22 -12 8 -19 21 -16 29 5 12 10 10 26 -10 15
-19 20 -44 23 -108z m1362 111 c-3 -8 -6 -5 -6 6 -1 11 2 17 5 13 3 -3 4 -12
1 -19z m1096 15 c-7 -2 -19 -2 -25 0 -7 3 -2 5 12 5 14 0 19 -2 13 -5z m-3314
-42 c48 -14 73 -15 51 -2 -8 6 -18 7 -24 4 -5 -3 -6 -1 -2 5 8 14 50 10 91 -8
17 -7 33 -14 37 -14 21 -3 48 -39 48 -63 -1 -27 -1 -27 -16 -8 -13 17 -16 18
-24 5 -5 -8 -10 -19 -10 -25 0 -5 5 -3 10 5 15 23 12 -4 -3 -33 -11 -20 -17
-23 -25 -15 -15 15 -16 32 -2 23 6 -3 10 -1 10 5 0 7 -6 10 -14 7 -8 -3 -20 1
-26 9 -7 8 -9 14 -6 14 4 0 0 7 -9 16 -9 9 -13 24 -10 35 8 23 -1 24 -21 4 -9
-8 -23 -15 -33 -15 -10 0 -39 -21 -65 -46 -35 -34 -51 -43 -59 -35 -8 8 -8 11
1 11 19 0 62 50 62 71 0 11 0 22 1 27 0 4 -10 10 -23 14 -22 6 -22 6 -1 7 14
1 20 7 18 19 -1 9 0 12 2 6 2 -6 21 -16 42 -23z m26 29 c-3 -5 -11 -10 -16
-10 -6 0 -7 5 -4 10 3 6 11 10 16 10 6 0 7 -4 4 -10z m1955 -10 c0 -11 -4 -20
-10 -20 -5 0 -10 9 -10 20 0 11 5 20 10 20 6 0 10 -9 10 -20z m75 0 c-3 -5
-12 -10 -18 -10 -7 0 -6 4 3 10 19 12 23 12 15 0z m1245 0 c0 -5 15 -13 33
-18 25 -7 28 -11 15 -16 -9 -5 -27 0 -42 9 -26 18 -34 35 -16 35 6 0 10 -4 10
-10z m-2745 -26 c29 -14 29 -14 -22 -10 -29 3 -65 12 -80 21 -28 16 -28 16 22
9 27 -3 63 -12 80 -20z m-146 -28 c21 -22 10 -27 -24 -11 -17 8 -42 19 -57 24
-16 6 -28 15 -28 20 0 14 89 -14 109 -33z m1841 29 c0 -8 -4 -15 -9 -15 -13 0
-22 16 -14 24 11 11 23 6 23 -9z m-1556 -20 c-4 -8 -12 -15 -19 -15 -7 0 -18
7 -25 15 -11 13 -8 15 18 15 24 0 30 -4 26 -15z m1296 8 c0 -5 -5 -15 -10 -23
-8 -12 -10 -11 -10 8 0 12 5 22 10 22 6 0 10 -3 10 -7z m-866 -33 c14 -5 26
-14 26 -20 0 -16 -15 -12 -41 10 -27 22 -22 25 15 10z m-569 -10 c3 -5 1 -10
-4 -10 -6 0 -11 5 -11 10 0 6 2 10 4 10 3 0 8 -4 11 -10z m155 -2 c5 -25 29
-187 30 -196 0 -9 -10 -12 -27 -10 -24 3 -26 7 -27 51 0 45 -8 59 -21 37 -9
-14 -25 -3 -25 17 0 10 6 14 20 10 18 -5 20 0 20 44 0 37 4 49 15 49 8 0 15
-1 15 -2z m1915 -8 c-3 -5 -14 -10 -23 -10 -15 0 -15 2 -2 10 20 13 33 13 25
0z m-633 -17 c1 -4 8 -14 17 -21 13 -10 14 -12 1 -10 -18 4 -30 18 -30 37 0
15 11 9 12 -6z m718 -7 c-14 -12 -27 -19 -28 -14 -6 13 18 38 37 38 12 0 10
-6 -9 -24z m-1520 -16 c0 -11 -4 -20 -10 -20 -5 0 -10 9 -10 20 0 11 5 20 10
20 6 0 10 -9 10 -20z m-2110 -21 c0 -6 -4 -7 -10 -4 -5 3 -10 11 -10 16 0 6 5
7 10 4 6 -3 10 -11 10 -16z m2150 11 c0 -5 -4 -10 -10 -10 -5 0 -10 5 -10 10
0 6 5 10 10 10 6 0 10 -4 10 -10z m1161 0 c10 -6 19 -17 19 -26 0 -18 -46 -37
-71 -29 -26 8 -24 29 1 22 18 -5 26 7 21 36 -1 10 7 9 30 -3z m-1076 -31 c4
-10 3 -28 0 -39 -6 -18 -15 -20 -85 -20 -64 0 -78 3 -74 14 7 19 54 27 54 10
0 -8 4 -14 10 -14 5 0 7 6 4 14 -3 8 -1 17 5 21 6 3 11 -1 11 -9 0 -11 10 -15
35 -14 40 1 40 0 20 38 -13 26 -13 29 0 24 8 -3 17 -14 20 -25z m-721 -4 c-4
-8 -8 -15 -10 -15 -2 0 -4 7 -4 15 0 8 4 15 10 15 5 0 7 -7 4 -15z m246 -22
c0 -12 -2 -12 -15 1 -8 8 -15 17 -15 20 0 3 7 3 15 0 8 -4 15 -13 15 -21z m42
-23 c8 -18 18 -28 26 -25 8 3 20 5 28 5 8 0 14 7 14 15 0 8 5 15 10 15 6 0 10
-4 10 -9 0 -6 27 -10 60 -10 37 1 60 5 60 12 0 8 3 8 11 0 15 -15 3 -33 -22
-33 -10 0 -19 -5 -19 -11 0 -5 -5 -7 -12 -3 -8 5 -9 2 -5 -9 10 -25 -8 -20
-21 6 -6 12 -11 16 -11 10 -1 -7 -9 -13 -19 -13 -10 0 -22 -3 -26 -7 -8 -8
-13 -9 -42 -12 -11 -1 -14 -7 -10 -17 6 -15 4 -15 -11 -3 -10 8 -21 19 -25 24
-5 6 -11 6 -16 -2 -4 -7 -28 -15 -52 -18 -25 -4 -56 -8 -68 -11 -15 -3 -21 -1
-17 6 3 5 25 11 48 11 40 1 40 2 12 9 -25 6 -18 16 8 11 5 -1 11 8 14 19 4 14
9 18 17 11 8 -7 17 -4 29 9 9 11 12 20 7 20 -6 0 -10 7 -10 15 0 25 18 17 32
-15z m-2198 -5 c-4 -8 -8 -15 -10 -15 -2 0 -4 7 -4 15 0 8 4 15 10 15 5 0 7
-7 4 -15z m1563 0 c9 -24 -1 -27 -15 -5 -8 13 -8 20 -2 20 6 0 13 -7 17 -15z
m2066 8 c-7 -2 -21 -2 -30 0 -10 3 -4 5 12 5 17 0 24 -2 18 -5z m247 -3 c0 -5
-4 -10 -10 -10 -5 0 -10 5 -10 10 0 6 5 10 10 10 6 0 10 -4 10 -10z m-2582
-140 c-13 -11 -28 -19 -34 -20 -16 0 -33 -23 -37 -48 -6 -42 -23 -47 -57 -18
-32 26 -87 33 -101 13 -8 -12 -31 1 -24 13 3 5 28 16 55 25 28 9 50 20 50 24
0 5 30 9 67 10 37 1 73 7 80 13 8 6 14 36 15 72 l2 61 3 -63 c4 -56 1 -65 -19
-82z m399 93 c-3 -10 -5 -2 -5 17 0 19 2 27 5 18 2 -10 2 -26 0 -35z m1974 6
c-13 -11 -27 -17 -30 -13 -3 3 5 14 18 25 13 11 27 17 30 13 3 -3 -5 -14 -18
-25z m181 -1 c-7 -7 -11 -23 -11 -37 1 -17 3 -20 6 -8 5 18 38 23 62 8 20 -13
71 7 64 25 -4 10 0 12 11 8 9 -3 16 -10 16 -15 0 -5 5 -8 11 -6 6 1 14 -4 16
-10 3 -7 -1 -13 -7 -13 -10 0 -10 -3 0 -15 7 -8 10 -24 7 -35 -4 -16 2 -22 26
-29 30 -9 28 -9 -20 -10 -52 -1 -58 3 -54 36 2 15 -16 26 -29 18 -8 -5 -7 -11
0 -20 7 -8 9 -18 6 -24 -10 -15 5 -41 22 -41 13 0 12 -4 -6 -22 -21 -22 -22
-22 -37 -3 -8 11 -15 14 -15 8 0 -23 -18 -14 -22 12 -5 22 -2 24 18 19 18 -5
24 -2 24 10 0 9 -5 16 -11 16 -5 0 -7 5 -4 10 4 7 -10 8 -39 5 -43 -5 -46 -4
-46 17 l0 22 -16 -22 c-19 -27 -29 -28 -55 -3 -15 13 -17 21 -9 26 9 6 9 9 0
15 -22 13 -3 37 34 44 23 4 37 14 41 27 5 15 10 18 18 10 8 -8 8 -14 -1 -23z
m538 17 c0 -8 -4 -15 -10 -15 -5 0 -7 7 -4 15 4 8 8 15 10 15 2 0 4 -7 4 -15z
m100 -6 c0 -6 -4 -7 -10 -4 -5 3 -10 11 -10 16 0 6 5 7 10 4 6 -3 10 -11 10
-16z m240 -21 c-22 -21 -30 -23 -30 -6 0 19 34 47 42 34 4 -6 -2 -18 -12 -28z
m-430 17 c0 -8 -4 -15 -10 -15 -5 0 -10 7 -10 15 0 8 5 15 10 15 6 0 10 -7 10
-15z m55 5 c3 -5 1 -10 -4 -10 -6 0 -11 5 -11 10 0 6 2 10 4 10 3 0 8 -4 11
-10z m-95 -14 c0 -9 -7 -12 -20 -9 -11 3 -20 9 -20 14 0 5 9 9 20 9 11 0 20
-6 20 -14z m-3680 -11 c0 -8 -4 -15 -10 -15 -5 0 -10 7 -10 15 0 8 5 15 10 15
6 0 10 -7 10 -15z m3630 0 c0 -8 -6 -15 -14 -15 -8 0 -16 7 -20 15 -4 10 1 15
14 15 11 0 20 -7 20 -15z m668 -7 c-7 -19 -38 -22 -38 -4 0 10 9 16 21 16 12
0 19 -5 17 -12z m-3077 -31 c-8 -8 -11 -7 -11 4 0 20 13 34 18 19 3 -7 -1 -17
-7 -23z m-651 13 c0 -5 -4 -10 -10 -10 -5 0 -10 5 -10 10 0 6 5 10 10 10 6 0
10 -4 10 -10z m1178 3 c-10 -2 -18 -9 -18 -15 0 -6 -3 -9 -6 -5 -10 10 6 27
24 26 15 -1 15 -2 0 -6z m1992 -13 c0 -21 -15 -27 -25 -10 -7 12 2 30 16 30 5
0 9 -9 9 -20z m-4140 0 c0 -5 -4 -10 -10 -10 -5 0 -10 5 -10 10 0 6 5 10 10
10 6 0 10 -4 10 -10z m1070 0 c0 -5 -7 -10 -16 -10 -8 0 -12 5 -9 10 3 6 10
10 16 10 5 0 9 -4 9 -10z m1202 -25 c109 -6 99 -9 -42 -14 -80 -4 -217 -4
-305 -1 l-160 6 140 2 c289 6 285 5 285 20 0 12 3 12 15 2 8 -7 38 -13 67 -15z
m1128 11 c45 1 47 -2 23 -28 -18 -20 -10 -39 9 -20 19 19 25 14 32 -23 4 -19
11 -35 16 -35 6 0 10 -7 10 -15 0 -17 16 -20 25 -5 7 11 44 -1 44 -15 1 -5 -7
-10 -17 -10 -9 -1 -23 -4 -29 -8 -13 -8 -53 8 -53 21 0 5 -11 8 -24 8 -14 0
-22 -5 -19 -11 2 -7 -5 -11 -17 -10 -13 1 -37 27 -69 73 l-50 72 35 0 c20 0
34 5 35 13 0 6 2 8 5 2 2 -5 22 -10 44 -9z m621 -23 c-9 -16 -10 -14 -11 12 0
21 3 26 11 18 8 -8 8 -16 0 -30z m-4201 11 c0 -8 -5 -12 -10 -9 -6 4 -8 11 -5
16 9 14 15 11 15 -7z m449 -10 c-11 -13 -2 -19 24 -15 4 0 7 -3 7 -9 0 -15
-33 -12 -56 5 -22 16 -48 20 -39 5 3 -5 -1 -10 -10 -10 -14 0 -14 2 0 23 12
19 22 22 50 19 29 -3 33 -7 24 -18z m291 -6 c0 -19 -25 -25 -35 -8 -9 15 -35
12 -35 -4 0 -18 -49 -31 -63 -17 -6 6 -20 11 -31 11 -15 0 -17 3 -9 11 9 9 20
9 43 -1 17 -7 33 -10 37 -7 3 4 -6 11 -21 16 -14 6 -26 12 -26 14 0 2 31 4 70
3 60 -1 70 -4 70 -18z m915 12 c-3 -5 -14 -10 -23 -10 -15 0 -15 2 -2 10 20
13 33 13 25 0z m-619 -37 c-11 -11 -19 6 -11 24 8 17 8 17 12 0 3 -10 2 -21
-1 -24z m806 15 c-5 -18 -7 -19 -10 -6 -2 9 -11 19 -20 21 -10 3 -6 5 10 6 22
1 25 -2 20 -21z m751 15 c-7 -2 -19 -2 -25 0 -7 3 -2 5 12 5 14 0 19 -2 13 -5z
m-1753 -10 c-8 -3 -20 -10 -26 -14 -7 -6 -16 -3 -24 6 -11 13 -7 15 26 14 22
0 32 -3 24 -6z m60 -1 c0 -15 -11 -21 -27 -15 -12 5 -12 7 -1 14 17 11 28 11
28 1z m2771 -25 c-13 -12 -20 -15 -16 -7 14 26 28 41 33 35 3 -3 -5 -16 -17
-28z m-2691 19 c0 -2 -7 -6 -15 -10 -8 -3 -15 -1 -15 4 0 6 7 10 15 10 8 0 15
-2 15 -4z m3146 -23 c-10 -10 -19 5 -10 18 6 11 8 11 12 0 2 -7 1 -15 -2 -18z
m-1849 11 c-3 -3 -12 -4 -19 -1 -8 3 -5 6 6 6 11 1 17 -2 13 -5z m-1377 -36
c0 -13 -23 -5 -28 10 -2 7 2 10 12 6 9 -3 16 -11 16 -16z m1674 -5 c29 -16 3
-34 -34 -23 -19 6 -49 10 -67 10 -17 0 -35 5 -38 10 -4 7 -11 7 -18 2 -7 -5
-22 -8 -34 -7 -12 1 -19 -3 -16 -8 4 -6 -3 -8 -15 -5 -13 4 -20 2 -16 -3 3 -6
19 -8 35 -5 32 5 46 -6 26 -22 -15 -13 -68 -7 -77 8 -4 6 -9 11 -11 10 -12 -4
-39 14 -39 26 0 8 -5 14 -10 14 -6 0 -8 -16 -4 -40 5 -32 4 -40 -7 -38 -8 2
-17 11 -21 21 -4 9 -17 17 -28 17 -36 0 -152 -51 -221 -96 -69 -47 -89 -53
-89 -29 0 8 6 15 14 15 8 0 16 7 20 15 3 8 12 15 20 15 10 0 13 6 10 15 -4 8
-1 15 5 15 6 0 11 -5 11 -11 0 -5 5 -7 12 -3 9 6 9 9 0 12 -17 5 -15 32 2 32
8 0 18 -5 21 -11 5 -7 11 -6 18 4 21 25 196 67 307 74 47 3 86 6 87 7 6 5 144
-13 157 -21z m1219 13 c11 -28 -43 -51 -59 -25 -4 8 0 9 15 4 15 -4 21 -2 21
8 0 9 -6 18 -12 20 -7 3 -3 6 8 6 12 1 24 -5 27 -13z m-2804 -22 c4 3 12 -4
19 -15 13 -20 3 -26 -14 -9 -7 7 -10 4 -10 -12 1 -20 -3 -23 -30 -20 -20 2
-36 -4 -49 -18 -19 -21 -35 -26 -35 -11 0 18 31 41 54 41 28 0 59 31 39 37 -7
3 -13 11 -13 20 0 12 2 12 16 -1 8 -9 19 -14 23 -12z m738 -96 c-2 -24 -4 -5
-4 42 0 47 2 66 4 43 2 -24 2 -62 0 -85z m104 -13 l-6 -60 -6 65 c-3 36 -3 81
0 100 l5 35 7 -40 c4 -22 4 -67 0 -100z m-1376 103 c7 6 6 -4 -6 -46 -6 -21
69 -41 149 -40 40 1 75 5 78 10 3 4 16 8 29 8 13 0 27 5 30 11 4 6 22 8 46 4
32 -6 39 -4 39 9 0 9 5 16 10 16 16 0 12 -22 -7 -37 -16 -12 -15 -13 10 -7 33
8 37 -12 5 -27 -21 -9 -21 -9 -2 -6 28 6 54 -10 54 -32 0 -11 7 -21 15 -25 12
-4 19 -56 7 -56 -10 0 -32 31 -32 44 0 23 -28 20 -35 -4 -3 -11 -13 -20 -21
-20 -8 0 -15 -8 -15 -17 -1 -10 -2 -25 -3 -33 -1 -16 -46 -24 -46 -9 0 5 10 9
23 9 18 0 19 2 7 10 -10 7 -11 10 -2 10 19 0 11 60 -10 71 -10 5 -18 17 -18
27 0 15 -2 15 -10 2 -9 -13 -14 -7 -11 13 0 4 -7 7 -17 7 -10 0 -23 5 -30 12
-9 9 -15 9 -24 0 -7 -7 -32 -13 -58 -13 -40 -1 -41 -2 -15 -8 17 -4 42 -4 57
0 22 6 27 4 32 -17 5 -17 13 -24 31 -24 16 0 25 -6 25 -15 0 -8 -4 -15 -10
-15 -5 0 -10 4 -10 9 0 5 -16 5 -37 0 -52 -12 -56 -11 -49 6 4 11 -2 15 -24
15 -30 0 -50 -17 -33 -29 5 -3 15 -21 21 -40 10 -28 9 -37 -3 -51 -8 -9 -15
-22 -15 -28 0 -7 -13 -12 -30 -12 -20 0 -30 5 -30 15 0 8 -7 15 -15 15 -14 0
-17 -9 -19 -55 -1 -11 -5 -21 -11 -22 -5 -2 -8 15 -6 36 3 42 -12 62 -27 35
-8 -15 -10 -15 -15 0 -11 28 -37 19 -37 -14 0 -23 -4 -28 -16 -23 -13 5 -13 7
-2 14 8 5 9 9 2 9 -7 0 -14 9 -17 20 -6 24 -32 27 -41 4 -3 -8 -10 -12 -16 -9
-7 4 -7 13 0 25 10 18 19 19 93 14 45 -3 92 -7 104 -10 29 -6 41 16 18 33 -17
12 -17 13 -2 13 9 0 17 5 17 10 0 6 -11 10 -25 10 -14 0 -25 4 -25 9 0 4 11 6
24 4 20 -4 24 -1 24 23 0 15 8 33 18 41 15 11 8 13 -57 13 -41 0 -81 5 -89 10
-13 8 -12 10 3 10 20 0 24 46 5 52 -10 4 -10 11 0 34 13 26 15 27 26 12 7 -10
17 -14 21 -10z m355 12 c0 -5 -4 -10 -9 -10 -6 0 -13 5 -16 10 -3 6 1 10 9 10
9 0 16 -4 16 -10z m3980 0 c0 -5 -6 -10 -14 -10 -8 0 -18 5 -21 10 -3 6 3 10
14 10 12 0 21 -4 21 -10z m-3840 -25 c0 -3 -9 -5 -20 -5 -11 0 -20 7 -20 15 0
13 4 14 20 5 11 -6 20 -13 20 -15z m3070 -6 c0 -5 -4 -9 -10 -9 -5 0 -10 7
-10 16 0 8 5 12 10 9 6 -3 10 -10 10 -16z m-1546 -5 c14 -14 22 -34 13 -34 -2
0 -14 11 -27 25 -25 27 -12 35 14 9z m1595 13 c-2 -1 -12 -9 -22 -16 -15 -12
-17 -12 -11 3 3 9 13 16 22 16 8 0 13 -1 11 -3z m-3778 -38 c28 -15 13 -31
-16 -17 -25 11 -34 28 -14 28 6 0 19 -5 30 -11z m713 -24 c-7 -18 -20 -19 -30
-3 -4 7 -3 8 4 4 7 -4 12 -2 12 3 0 6 4 11 10 11 5 0 7 -7 4 -15z m2946 1
c-14 -8 -29 -11 -35 -8 -5 3 1 9 15 13 40 11 47 9 20 -5z m-2477 -21 c-7 -21
-13 -19 -13 6 0 11 4 18 10 14 5 -3 7 -12 3 -20z m2417 9 c0 -8 -5 -12 -10 -9
-6 4 -8 11 -5 16 9 14 15 11 15 -7z m-2830 2 c0 -2 -7 -6 -15 -10 -8 -3 -15
-1 -15 4 0 6 7 10 15 10 8 0 15 -2 15 -4z m458 -26 c10 -17 10 -20 -3 -20 -8
0 -15 2 -15 4 0 2 -3 11 -6 20 -9 23 9 20 24 -4z m692 11 c0 -5 -7 -12 -16
-15 -14 -5 -15 -4 -4 9 14 17 20 19 20 6z m1968 -9 c-8 -9 -14 -9 -24 -1 -19
16 -18 17 10 15 18 -1 22 -4 14 -14z m-2023 -20 c-3 -3 -11 0 -18 7 -9 10 -8
11 6 5 10 -3 15 -9 12 -12z m-705 -17 c-7 -9 -15 -13 -17 -11 -7 7 7 26 19 26
6 0 6 -6 -2 -15z m2993 -18 c15 -10 16 -19 8 -52 -5 -22 -9 -31 -10 -19 -1 11
-10 30 -22 42 -30 33 -11 55 24 29z m-3066 -34 c-8 -7 -37 9 -31 19 3 5 12 4
20 -3 8 -6 13 -14 11 -16z m450 5 c-3 -8 -6 -5 -6 6 -1 11 2 17 5 13 3 -3 4
-12 1 -19z m-211 -25 c-8 -9 -37 18 -30 28 3 5 12 2 21 -6 8 -9 13 -19 9 -22z
m-911 7 c18 -8 19 -9 1 -9 -12 -1 -16 -6 -12 -16 3 -8 -2 -19 -12 -24 -15 -9
-14 -10 5 -11 l21 0 -21 -24 -21 -24 -18 23 c-10 13 -18 33 -18 44 0 12 -5 21
-10 21 -6 0 -5 6 2 15 14 16 52 18 83 5z m3095 -30 c0 -5 -7 -7 -15 -4 -8 4
-15 8 -15 10 0 2 7 4 15 4 8 0 15 -4 15 -10z m40 1 c0 -5 -7 -11 -15 -15 -15
-5 -20 5 -8 17 9 10 23 9 23 -2z m45 -1 c3 -5 2 -10 -4 -10 -5 0 -13 5 -16 10
-3 6 -2 10 4 10 5 0 13 -4 16 -10z m-3035 -10 c0 -5 -2 -10 -4 -10 -3 0 -8 5
-11 10 -3 6 -1 10 4 10 6 0 11 -4 11 -10z m-100 -20 c0 -5 -2 -10 -4 -10 -3 0
-8 5 -11 10 -3 6 -1 10 4 10 6 0 11 -4 11 -10z m1070 -16 c0 -8 -4 -12 -10 -9
-5 3 -10 1 -10 -6 0 -8 -4 -8 -15 1 -13 11 -13 15 -3 21 21 14 38 10 38 -7z
m30 -44 c0 -5 -9 -10 -21 -10 -11 0 -17 5 -14 10 3 6 13 10 21 10 8 0 14 -4
14 -10z m-1295 -10 c-3 -5 1 -10 10 -10 9 0 14 -4 11 -9 -3 -5 1 -14 9 -21 12
-10 13 -16 4 -26 -8 -10 -8 -14 -1 -14 6 0 14 5 17 10 7 12 16 12 33 2 14 -9
6 -42 -10 -42 -6 0 -7 7 -4 16 4 10 2 13 -7 7 -16 -11 -177 -10 -177 1 0 4 -9
-2 -20 -15 -19 -24 -19 -24 -20 -3 0 13 -8 24 -20 27 -11 3 -20 12 -20 20 0
13 8 14 38 10 20 -3 40 -10 43 -16 4 -5 9 -5 13 2 4 6 21 11 37 11 20 0 29 4
26 13 -2 6 2 20 11 30 16 18 37 24 27 7z m1360 0 c3 -6 -1 -7 -9 -4 -18 7 -21
14 -7 14 6 0 13 -4 16 -10z m-1525 -22 c0 -13 -32 -6 -37 9 -3 7 3 9 16 6 12
-3 21 -10 21 -15z m4178 -12 c3 -15 1 -16 -17 -5 -11 7 -17 17 -14 22 8 13 28
2 31 -17z m-2003 -6 c3 -5 1 -10 -4 -10 -6 0 -11 5 -11 10 0 6 2 10 4 10 3 0
8 -4 11 -10z m-1620 -68 c-8 -8 -25 10 -19 20 4 6 9 5 15 -3 4 -7 6 -15 4 -17z
m558 10 c-8 -5 -9 -13 -3 -22 8 -12 13 -11 31 8 19 21 22 22 38 8 10 -9 25
-16 34 -16 17 0 22 -11 10 -23 -3 -4 -17 2 -29 14 -14 13 -24 17 -29 10 -3 -6
1 -14 9 -17 24 -9 20 -37 -4 -29 -15 5 -20 2 -20 -10 0 -13 6 -16 25 -11 14 4
25 3 25 -2 0 -17 -12 -21 -37 -11 -27 10 -46 3 -25 -10 9 -5 5 -11 -13 -21
-14 -7 -25 -17 -25 -21 0 -5 -7 -6 -15 -3 -8 4 -15 1 -15 -7 0 -7 -2 -10 -5
-7 -3 3 -1 17 4 31 8 21 7 26 -12 31 -12 3 -31 6 -42 6 -17 0 -17 -2 -5 -10
13 -9 13 -10 0 -11 -8 -1 -19 -3 -25 -4 -5 -2 -20 -3 -32 -4 -16 -1 -23 -7
-23 -22 0 -11 -4 -17 -10 -14 -6 4 -8 15 -5 26 8 24 -3 25 -21 2 -8 -11 -13
-13 -14 -5 0 6 -8 12 -17 12 -14 0 -12 -4 7 -25 20 -21 21 -25 6 -25 -9 0 -19
7 -22 15 -4 10 -14 14 -28 9 -17 -4 -15 -1 9 19 17 14 27 29 23 33 -12 12 12
33 29 27 12 -5 15 -2 10 9 -3 10 0 19 9 22 8 3 14 12 14 21 0 8 5 15 10 15 6
0 10 -5 10 -12 0 -6 7 -3 16 8 9 11 17 15 20 8 5 -13 113 1 128 16 5 5 12 7
15 4 3 -3 0 -8 -6 -12z m-993 -12 c0 -5 -7 -10 -15 -10 -8 0 -15 5 -15 10 0 6
7 10 15 10 8 0 15 -4 15 -10z m-125 -10 c3 -5 1 -10 -4 -10 -6 0 -11 5 -11 10
0 6 2 10 4 10 3 0 8 -4 11 -10z m2226 -33 c-13 -13 -15 1 -4 30 7 17 8 17 11
-1 2 -10 -1 -23 -7 -29z m-2021 13 c13 -9 13 -11 0 -20 -12 -8 -9 -10 13 -10
15 0 27 -4 27 -9 0 -5 -12 -12 -27 -15 -16 -4 -36 -9 -46 -12 -16 -5 -18 -2
-12 16 4 12 9 30 10 39 2 9 4 17 4 19 2 5 17 1 31 -8z m1090 -4 c0 -11 -19
-15 -25 -6 -3 5 1 10 9 10 9 0 16 -2 16 -4z m230 -31 c-7 -9 -10 -18 -7 -21 3
-3 14 4 24 15 20 24 35 28 27 8 -3 -8 2 -20 11 -27 8 -7 15 -19 15 -26 0 -9
12 -14 34 -14 50 0 98 -19 92 -37 -3 -8 -6 -19 -6 -24 0 -4 -8 -5 -17 -2 -13
5 -15 3 -8 -13 4 -10 10 -32 13 -48 3 -21 1 -27 -9 -24 -8 3 -13 11 -11 18 2
7 0 25 -3 40 -5 22 -12 28 -33 28 -15 0 -35 -4 -44 -9 -20 -11 -24 1 -6 19 9
9 8 12 -4 12 -9 0 -18 -6 -20 -12 -3 -8 -25 -13 -59 -14 -51 0 -55 1 -57 23
-2 20 2 23 18 18 15 -5 18 -3 14 9 -12 31 -56 17 -68 -21 -5 -15 -18 -24 -42
-29 -42 -8 -47 -4 -39 29 6 22 16 28 62 37 42 9 62 20 91 50 34 37 60 48 32
15z m570 -39 c0 -40 -30 -55 -48 -25 -18 28 -14 47 4 21 20 -29 38 -18 30 20
-3 18 -2 27 4 23 6 -3 10 -21 10 -39z m-357 27 c-7 -2 -19 -2 -25 0 -7 3 -2 5
12 5 14 0 19 -2 13 -5z m152 -3 c3 -5 0 -10 -7 -10 -10 0 -9 -3 2 -10 8 -5 11
-13 6 -17 -4 -4 -14 1 -22 11 -12 17 -14 18 -14 3 0 -10 -8 -17 -18 -17 -28 0
-32 10 -14 31 18 20 57 26 67 9z m-585 -14 c0 -3 -4 -8 -10 -11 -5 -3 -10 -1
-10 4 0 6 5 11 10 11 6 0 10 -2 10 -4z m-616 -27 c-17 -7 -17 -8 -1 -8 20 -1
23 -17 5 -24 -8 -3 -6 -6 5 -6 10 -1 20 6 23 14 4 8 15 15 25 15 10 0 19 5 19
12 0 6 3 8 8 4 4 -4 7 -13 7 -19 0 -6 11 -17 24 -23 23 -12 23 -12 2 -19 -12
-3 -21 -11 -21 -17 0 -5 8 -7 18 -4 16 6 16 5 -1 -8 -18 -14 -57 -11 -57 5 0
5 -5 9 -11 9 -5 0 -9 -8 -8 -17 3 -31 -1 -41 -16 -47 -12 -4 -14 0 -9 19 4 15
2 25 -5 25 -6 0 -13 -11 -17 -25 -8 -32 -24 -32 -24 -1 0 16 7 27 20 31 32 10
25 35 -10 35 -32 0 -40 14 -15 24 8 3 15 12 15 20 0 16 20 26 34 18 5 -3 1 -9
-10 -13z m61 11 c3 -5 -1 -10 -9 -10 -9 0 -16 5 -16 10 0 6 4 10 9 10 6 0 13
-4 16 -10z m451 -25 c10 -8 15 -15 9 -16 -5 0 -20 -2 -32 -3 -14 -2 -23 4 -26
16 -6 22 21 24 49 3z m79 -3 c-3 -3 -11 0 -18 7 -9 10 -8 11 6 5 10 -3 15 -9
12 -12z m-270 -2 c3 -5 1 -10 -4 -10 -6 0 -11 5 -11 10 0 6 2 10 4 10 3 0 8
-4 11 -10z m935 -20 c0 -5 -4 -10 -10 -10 -5 0 -10 5 -10 10 0 6 5 10 10 10 6
0 10 -4 10 -10z m-1690 -46 c0 -7 7 -15 16 -18 22 -8 11 -19 -23 -24 -24 -3
-52 -26 -53 -44 0 -4 23 -6 51 -3 40 3 54 0 70 -16 24 -24 24 -30 2 -23 -17 5
-17 5 0 -6 25 -16 21 -30 -10 -30 -14 0 -35 -7 -45 -17 -10 -9 -18 -11 -18 -6
0 13 -45 23 -71 16 -10 -3 -19 -9 -19 -14 0 -5 12 -6 26 -3 20 5 25 3 22 -7
-5 -15 -77 -21 -130 -11 -29 5 -38 26 -15 35 6 3 3 6 -8 6 -22 1 -49 36 -40
51 3 5 13 6 22 3 11 -4 14 -3 9 5 -4 7 -18 12 -31 12 -13 0 -30 7 -39 15 -8 8
-19 15 -24 15 -15 0 -23 28 -16 55 7 29 33 33 172 31 57 0 106 2 108 6 7 10
44 -14 44 -28z m740 15 c0 -6 -4 -7 -10 -4 -5 3 -10 11 -10 16 0 6 5 7 10 4 6
-3 10 -11 10 -16z m-660 -8 c0 -14 -18 -23 -30 -16 -6 4 -8 11 -5 16 8 12 35
12 35 0z m550 -12 c0 -5 -5 -7 -10 -4 -6 3 -13 -1 -16 -9 -7 -18 -24 -11 -24
10 0 8 10 14 25 14 14 0 25 -5 25 -11z m373 4 c-7 -2 -19 -2 -25 0 -7 3 -2 5
12 5 14 0 19 -2 13 -5z m383 -30 c7 -10 14 -30 14 -45 0 -25 -2 -26 -37 -21
-51 8 -59 17 -29 37 16 10 23 22 20 31 -8 21 16 19 32 -2z m-480 -8 c-21 -16
-32 -13 -21 4 3 6 14 11 23 11 15 -1 15 -2 -2 -15z m960 -22 c-11 -11 -17 4
-9 23 7 18 8 18 11 1 2 -10 1 -21 -2 -24z m-926 3 c0 -2 -7 -6 -15 -10 -8 -3
-15 -1 -15 4 0 6 7 10 15 10 8 0 15 -2 15 -4z m-820 -41 c0 -8 -4 -15 -10 -15
-5 0 -7 7 -4 15 4 8 8 15 10 15 2 0 4 -7 4 -15z m-430 -4 c0 -15 -16 -22 -35
-15 -13 5 -14 8 -3 15 18 12 38 11 38 0z m1747 -13 c-3 -8 -6 -5 -6 6 -1 11 2
17 5 13 3 -3 4 -12 1 -19z"/>
<path d="M4827 1986 c-4 -9 -14 -12 -25 -9 -11 2 -23 0 -26 -6 -5 -7 7 -11 33
-11 26 0 41 -5 41 -12 0 -7 7 -2 16 10 8 12 12 27 9 32 -9 15 -42 12 -48 -4z"/>
<path d="M4796 1942 c-4 -7 -19 -12 -34 -12 -25 -1 -25 -2 -9 -14 9 -7 17 -18
17 -25 0 -19 16 -12 29 13 14 26 11 61 -3 38z"/>
<path d="M4700 1841 c0 -5 5 -13 10 -16 6 -3 10 -2 10 4 0 5 -4 13 -10 16 -5
3 -10 2 -10 -4z"/>
<path d="M4796 1804 c-4 -9 -4 -19 -2 -21 8 -8 26 8 26 23 0 19 -16 18 -24 -2z"/>
<path d="M3610 1262 c0 -12 19 -26 26 -19 2 2 -2 10 -11 17 -9 8 -15 8 -15 2z"/>
<path d="M925 810 c-3 -5 -1 -10 4 -10 6 0 11 5 11 10 0 6 -2 10 -4 10 -3 0
-8 -4 -11 -10z"/>
<path d="M1570 409 c0 -13 30 -18 52 -10 20 7 18 9 -15 13 -20 2 -37 1 -37 -3z"/>
<path d="M1470 379 c0 -5 5 -7 10 -4 6 3 10 8 10 11 0 2 -4 4 -10 4 -5 0 -10
-5 -10 -11z"/>
<path d="M1650 371 c0 -11 5 -23 10 -26 6 -3 10 3 10 14 0 11 -4 23 -10 26 -5
3 -10 -3 -10 -14z"/>
<path d="M1520 370 c0 -5 5 -10 10 -10 6 0 10 5 10 10 0 6 -4 10 -10 10 -5 0
-10 -4 -10 -10z"/>
<path d="M2065 320 c4 -6 11 -8 16 -5 14 9 11 15 -7 15 -8 0 -12 -5 -9 -10z"/>
<path d="M2105 310 c3 -5 10 -10 16 -10 5 0 9 5 9 10 0 6 -7 10 -16 10 -8 0
-12 -4 -9 -10z"/>
<path d="M744 239 c-19 -22 -19 -22 4 -8 12 8 22 17 22 21 0 12 -6 9 -26 -13z"/>
<path d="M607 2323 c-4 -3 -7 -13 -7 -22 1 -13 3 -13 11 2 11 19 8 33 -4 20z"/>
<path d="M5006 2321 c-4 -5 3 -7 14 -4 23 6 26 13 6 13 -8 0 -17 -4 -20 -9z"/>
<path d="M3059 2138 c7 -9 10 -22 7 -27 -4 -5 -2 -12 4 -16 5 -3 10 -2 10 3 0
5 13 7 29 4 16 -2 31 1 35 6 8 13 -29 26 -45 17 -5 -4 -20 1 -32 12 -18 14
-19 15 -8 1z"/>
<path d="M3146 2142 c-3 -5 8 -9 24 -9 16 0 27 4 24 9 -3 4 -14 8 -24 8 -10 0
-21 -4 -24 -8z"/>
<path d="M2840 2121 c-7 -15 -7 -21 0 -21 12 0 25 28 17 36 -3 3 -10 -4 -17
-15z"/>
<path d="M2820 2080 c-9 -6 -10 -10 -3 -10 6 0 15 5 18 10 8 12 4 12 -15 0z"/>
<path d="M3028 2083 c7 -3 16 -2 19 1 4 3 -2 6 -13 5 -11 0 -14 -3 -6 -6z"/>
<path d="M2594 1909 c-10 -16 9 -30 26 -19 12 8 11 10 -5 10 -17 0 -17 2 -5
10 9 6 10 10 3 10 -6 0 -15 -5 -19 -11z"/>
<path d="M3400 1900 c0 -5 4 -10 9 -10 6 0 13 5 16 10 3 6 -1 10 -9 10 -9 0
-16 -4 -16 -10z"/>
<path d="M2126 1833 c-4 -4 -15 -8 -23 -8 -20 0 -26 -15 -14 -34 12 -19 50 3
48 29 -1 23 -1 22 -11 13z"/>
<path d="M2615 1810 c-11 -4 -27 -5 -35 -2 -13 5 -13 4 0 -10 8 -9 17 -12 18
-7 7 18 23 8 17 -10 -7 -24 11 -37 30 -21 18 15 19 22 3 42 -9 11 -20 13 -33
8z"/>
<path d="M3438 1768 c5 -5 16 -8 23 -6 8 3 3 7 -10 11 -17 4 -21 3 -13 -5z"/>
<path d="M4431 1674 c0 -11 3 -14 6 -6 3 7 2 16 -1 19 -3 4 -6 -2 -5 -13z"/>
<path d="M4370 1660 c0 -5 5 -10 10 -10 6 0 10 5 10 10 0 6 -4 10 -10 10 -5 0
-10 -4 -10 -10z"/>
<path d="M3920 1540 c-8 -5 -12 -12 -9 -15 4 -3 12 1 19 10 14 17 11 19 -10 5z"/>
<path d="M3980 1540 c0 -5 4 -10 9 -10 6 0 13 5 16 10 3 6 -1 10 -9 10 -9 0
-16 -4 -16 -10z"/>
<path d="M3970 1475 c0 -8 7 -15 15 -15 8 0 15 7 15 15 0 8 -7 15 -15 15 -8 0
-15 -7 -15 -15z"/>
<path d="M3918 1443 c7 -3 16 -2 19 1 4 3 -2 6 -13 5 -11 0 -14 -3 -6 -6z"/>
<path d="M4966 1196 c3 -9 11 -16 16 -16 13 0 5 23 -10 28 -7 2 -10 -2 -6 -12z"/>
<path d="M4840 980 c0 -5 5 -10 11 -10 5 0 7 5 4 10 -3 6 -8 10 -11 10 -2 0
-4 -4 -4 -10z"/>
<path d="M4638 944 c-5 -4 -8 -16 -8 -28 0 -14 3 -17 11 -9 6 6 9 19 7 28 -1
9 -6 13 -10 9z"/>
<path d="M4993 793 c-7 -2 -13 -9 -13 -14 0 -14 38 -11 44 4 3 8 8 7 16 -5 6
-10 18 -18 26 -18 12 0 12 3 2 20 -12 19 -46 25 -75 13z"/>
<path d="M4785 759 c-11 -17 1 -21 15 -4 8 9 8 15 2 15 -6 0 -14 -5 -17 -11z"/>
<path d="M4876 736 c-7 -27 16 -40 32 -18 7 9 22 16 32 14 12 -2 20 2 20 10 0
8 -14 13 -39 13 -32 1 -41 -3 -45 -19z"/>
<path d="M5025 741 c-6 -11 9 -23 19 -14 9 9 7 23 -3 23 -6 0 -12 -4 -16 -9z"/>
<path d="M5070 735 c7 -9 15 -13 17 -11 7 7 -7 26 -19 26 -6 0 -6 -6 2 -15z"/>
<path d="M4988 733 c7 -3 16 -2 19 1 4 3 -2 6 -13 5 -11 0 -14 -3 -6 -6z"/>
<path d="M4765 710 c-3 -5 1 -10 10 -10 9 0 13 5 10 10 -3 6 -8 10 -10 10 -2
0 -7 -4 -10 -10z"/>
<path d="M5070 701 c0 -5 5 -13 10 -16 6 -3 10 -2 10 4 0 5 -4 13 -10 16 -5 3
-10 2 -10 -4z"/>
<path d="M4726 691 c-18 -7 -17 -9 10 -22 16 -8 37 -13 47 -11 20 4 23 32 3
32 -8 0 -20 2 -28 4 -7 3 -22 1 -32 -3z"/>
<path d="M4948 694 c-13 -12 11 -42 38 -48 15 -4 32 -2 37 3 8 8 8 11 -1 11
-6 0 -9 7 -6 15 7 17 -21 21 -31 4 -5 -6 -11 -4 -19 6 -6 9 -15 13 -18 9z"/>
<path d="M5035 664 c0 -28 4 -34 22 -34 41 0 38 36 -6 60 -13 7 -16 2 -16 -26z"/>
<path d="M4900 686 c0 -2 7 -7 16 -10 8 -3 12 -2 9 4 -6 10 -25 14 -25 6z"/>
<path d="M4672 650 c-8 -14 -9 -26 -3 -37 7 -14 10 -13 16 6 5 15 12 20 25 16
10 -3 21 -1 25 5 3 6 -3 10 -14 10 -12 0 -21 5 -21 10 0 17 -14 11 -28 -10z"/>
<path d="M4890 645 c0 -8 -4 -15 -10 -15 -5 0 -10 -13 -10 -30 0 -21 5 -30 16
-30 11 0 14 -5 10 -16 -3 -8 0 -27 8 -42 7 -15 11 -33 9 -39 -3 -9 9 -13 43
-13 57 0 49 -20 -9 -22 -22 -1 -37 -6 -37 -14 0 -6 -7 -14 -15 -18 -8 -3 -15
-16 -15 -30 0 -29 39 -44 56 -21 15 20 21 19 27 -5 7 -29 35 -36 52 -14 8 11
15 14 15 7 0 -6 14 -16 30 -22 24 -8 30 -7 30 4 0 7 -10 17 -22 21 l-23 7 23
8 c21 8 22 13 20 106 0 54 -3 91 -5 82 -5 -20 -49 -28 -100 -20 l-37 6 27 12
c28 13 34 27 17 38 -15 10 -50 -5 -50 -20 0 -9 -6 -12 -15 -9 -18 7 -20 30 -2
38 6 3 0 4 -15 1 -33 -6 -35 -1 -8 27 24 26 25 38 5 38 -8 0 -15 -7 -15 -15z
m143 -142 c20 -3 37 -9 37 -14 0 -5 -12 -7 -27 -4 -16 2 -49 7 -76 10 -29 4
-45 10 -41 17 4 6 19 7 38 3 17 -3 48 -9 69 -12z m30 -60 c-13 -9 -23 -20 -23
-25 0 -5 10 -13 23 -18 l22 -9 -22 0 c-20 -1 -53 31 -53 51 0 9 63 27 70 20 3
-2 -5 -11 -17 -19z m-86 -46 c4 -7 0 -8 -11 -4 -10 4 -22 7 -27 7 -5 0 -9 4
-9 9 0 12 38 2 47 -12z"/>
<path d="M4950 621 c0 -12 5 -21 10 -21 6 0 10 6 10 14 0 8 -4 18 -10 21 -5 3
-10 -3 -10 -14z"/>
<path d="M4750 620 c-11 -7 -9 -11 13 -19 15 -6 27 -15 27 -21 0 -5 4 -10 9
-10 14 0 8 34 -9 47 -18 15 -21 15 -40 3z"/>
<path d="M4985 611 c-8 -14 8 -21 34 -14 17 4 19 8 9 14 -17 11 -35 11 -43 0z"/>
<path d="M4755 580 c3 -5 8 -10 11 -10 2 0 4 5 4 10 0 6 -5 10 -11 10 -5 0 -7
-4 -4 -10z"/>
<path d="M5020 565 c0 -11 7 -15 23 -13 12 2 22 8 22 13 0 6 -10 11 -22 13
-16 2 -23 -2 -23 -13z"/>
<path d="M4856 321 c-3 -5 3 -11 14 -14 16 -4 18 -12 14 -51 -4 -44 -3 -46 21
-46 14 0 25 -4 25 -10 0 -5 5 -10 11 -10 5 0 7 5 4 10 -4 6 5 10 20 10 18 0
28 -7 35 -24 5 -13 13 -25 18 -27 6 -2 12 -15 14 -29 3 -21 -1 -25 -24 -25
-16 0 -28 4 -27 9 0 5 -5 13 -13 17 -11 8 -11 11 1 18 11 7 9 11 -9 21 -16 9
-25 9 -33 1 -8 -8 -9 -14 -1 -19 17 -11 24 -40 11 -46 -8 -3 -6 -8 6 -16 9 -6
17 -19 17 -28 1 -19 23 -52 35 -52 4 0 5 7 1 15 -3 8 -1 15 5 15 6 0 13 -9 16
-20 4 -15 14 -20 39 -20 30 0 34 3 34 27 0 14 -8 35 -17 45 -13 15 -13 18 -2
13 12 -4 15 5 17 45 1 28 -2 50 -8 50 -5 0 -10 -5 -10 -11 0 -8 -4 -8 -12 -1
-7 6 -17 11 -23 11 -5 1 -10 6 -9 11 1 6 2 17 3 25 0 8 8 15 16 15 8 0 15 -7
15 -15 0 -8 7 -15 15 -15 10 0 15 10 15 29 0 22 -6 30 -24 35 -14 3 -31 3 -39
0 -9 -3 -25 8 -42 29 -24 32 -29 35 -58 26 -20 -5 -35 -5 -41 1 -12 12 -23 13
-30 1z m114 -33 c0 -4 -11 -8 -25 -8 -14 0 -25 4 -25 10 0 5 11 9 25 8 14 -1
25 -6 25 -10z m33 -213 c-3 -9 -8 -14 -10 -11 -3 3 -2 9 2 15 9 16 15 13 8 -4z"/>
<path d="M5032 298 c5 -15 37 -18 41 -3 1 6 -9 12 -22 13 -16 3 -22 -1 -19
-10z"/>
<path d="M4870 161 c0 -5 7 -11 15 -15 8 -3 15 -1 15 3 0 5 -7 11 -15 15 -8 3
-15 1 -15 -3z"/>
<path d="M4900 81 c0 -6 -8 -8 -17 -4 -17 6 -17 5 0 -14 9 -11 17 -30 17 -42
0 -19 4 -22 23 -17 12 3 25 6 30 6 9 0 9 30 -1 30 -4 0 -12 10 -17 22 -11 23
-35 37 -35 19z m28 -66 c-3 -3 -9 2 -12 12 -6 14 -5 15 5 6 7 -7 10 -15 7 -18z"/>
</g>
</svg>
